<svg width="988" height="444" viewBox="0 0 988 444" fill="none" xmlns="http://www.w3.org/2000/svg">
<g clip-path="url(#clip0_37841_12814)">
<rect width="988" height="444" rx="12" fill="#FCFCFC"/>
<g clip-path="url(#clip1_37841_12814)">
<rect x="-7" width="588" height="444" fill="#F3F4F6"/>
<g opacity="0.5" clip-path="url(#clip2_37841_12814)">
<path d="M-50.6318 328.56C-50.6318 323.79 -46.7649 319.923 -41.9949 319.923H75.4852C80.2552 319.923 84.1221 323.79 84.1221 328.56V398.571C84.1221 401.751 81.5442 404.329 78.3642 404.329H-44.8739C-48.0539 404.329 -50.6318 401.751 -50.6318 398.571V328.56Z" fill="#0C7AFF"/>
<path fill-rule="evenodd" clip-rule="evenodd" d="M-129.363 305C-134.133 305 -138 308.867 -138 313.637V392.242C-138 392.253 -138 392.264 -138 392.275V487.42C-138 490.6 -135.422 493.178 -132.242 493.178H88.7297C91.9098 493.178 94.4877 490.6 94.4877 487.42V341.97C94.4877 338.79 91.9098 336.212 88.7297 336.212H-44V313.637C-44 308.867 -47.8669 305 -52.6369 305H-129.363Z" fill="#3692FF"/>
</g>
<g opacity="0.5" clip-path="url(#clip3_37841_12814)">
<path d="M566.368 328.56C566.368 323.79 570.235 319.923 575.005 319.923H692.485C697.255 319.923 701.122 323.79 701.122 328.56V398.571C701.122 401.751 698.544 404.329 695.364 404.329H572.126C568.946 404.329 566.368 401.751 566.368 398.571V328.56Z" fill="#0C7AFF"/>
<path fill-rule="evenodd" clip-rule="evenodd" d="M487.637 305C482.867 305 479 308.867 479 313.637V392.242C479 392.253 479 392.264 479 392.275V487.42C479 490.6 481.578 493.178 484.758 493.178H705.73C708.91 493.178 711.488 490.6 711.488 487.42V341.97C711.488 338.79 708.91 336.212 705.73 336.212H573V313.637C573 308.867 569.133 305 564.363 305H487.637Z" fill="#3692FF"/>
</g>
</g>
<g clip-path="url(#clip4_37841_12814)">
<path d="M251.087 328.194C251.087 323.424 254.954 319.557 259.724 319.557H377.204C381.974 319.557 385.841 323.424 385.841 328.194V398.206C385.841 401.386 383.263 403.964 380.083 403.964H256.845C253.665 403.964 251.087 401.386 251.087 398.206V328.194Z" fill="#0C7AFF"/>
<path fill-rule="evenodd" clip-rule="evenodd" d="M172.356 304.634C167.586 304.634 163.719 308.501 163.719 313.271V391.876C163.719 391.887 163.719 391.898 163.719 391.909V487.055C163.719 490.235 166.297 492.812 169.477 492.812H390.449C393.629 492.812 396.207 490.235 396.207 487.055V341.604C396.207 338.424 393.629 335.846 390.449 335.846H257.719V313.271C257.719 308.501 253.852 304.634 249.082 304.634H172.356Z" fill="#3692FF"/>
</g>
<path d="M67.8369 123.251C67.8369 116.623 73.2095 111.251 79.8369 111.251H196.832V242.546H79.8369C73.2095 242.546 67.8369 237.174 67.8369 230.546V123.251Z" fill="#8698FF"/>
<path d="M115.496 144.408C115.426 143.797 115.464 143.177 115.607 142.578C116.755 137.762 123.277 136.979 125.476 141.393C125.75 141.942 125.926 142.536 125.995 143.147L132.159 197.314C132.489 200.215 130.407 202.85 127.507 203.198C124.608 203.546 121.99 201.476 121.66 198.575L115.496 144.408Z" fill="#E02D2C"/>
<path fill-rule="evenodd" clip-rule="evenodd" d="M121.699 133.837C123.676 137.781 121.117 142.53 116.725 143.07C116.033 143.154 115.547 142.49 115.712 141.81L118.445 130.578C118.626 129.835 119.632 129.713 119.973 130.393L121.699 133.837Z" fill="white"/>
<path fill-rule="evenodd" clip-rule="evenodd" d="M120.614 131.686C121.035 132.525 120.491 133.536 119.557 133.65C118.621 133.765 117.866 132.911 118.091 131.993L118.437 130.578C118.619 129.836 119.623 129.713 119.964 130.392L120.614 131.686Z" fill="#E02D2C"/>
<path d="M139.878 143.146C139.947 142.535 140.123 141.941 140.397 141.392C142.598 136.979 149.119 137.764 150.266 142.58C150.409 143.18 150.446 143.799 150.377 144.411L144.194 198.575C143.863 201.477 141.244 203.545 138.345 203.196C135.446 202.847 133.364 200.212 133.695 197.311L139.878 143.146Z" fill="#292424"/>
<path fill-rule="evenodd" clip-rule="evenodd" d="M148.241 134.495C149.271 138.731 145.787 142.661 141.474 142.13C140.696 142.034 140.341 141.173 140.691 140.475L145.758 130.376C146.1 129.696 147.105 129.819 147.286 130.562L148.241 134.495Z" fill="white"/>
<path fill-rule="evenodd" clip-rule="evenodd" d="M147.685 131.674C147.91 132.593 147.155 133.446 146.219 133.331C145.285 133.216 144.741 132.205 145.163 131.366L145.813 130.074C146.154 129.395 147.158 129.518 147.339 130.261L147.685 131.674Z" fill="#292424"/>
<path d="M109.709 173.831C109.709 167.203 115.082 161.831 121.709 161.831H156.104V220.55H121.709C115.082 220.55 109.709 215.177 109.709 208.55V173.831Z" fill="#5F76FF"/>
<path d="M109.709 188.726C109.709 182.943 114.397 178.255 120.18 178.255H156.104V199.197H120.18C114.397 199.197 109.709 194.509 109.709 188.726Z" fill="#FFD875"/>
<path d="M226.373 123.251C226.373 116.623 231.745 111.251 238.373 111.251H355.367V242.546H238.373C231.745 242.546 226.373 237.174 226.373 230.546V123.251Z" fill="#B9D9FF"/>
<path d="M260.816 149.783C260.816 143.461 265.72 138.224 272.028 137.809L307.614 135.465C314.537 135.009 320.402 140.501 320.402 147.439V203.964C320.402 210.591 315.03 215.964 308.402 215.964H272.816C266.189 215.964 260.816 210.591 260.816 203.964V149.783Z" fill="#F3F4F6"/>
<path d="M260.816 151.054C260.816 144.232 266.497 138.782 273.313 139.065L309.6 140.568C316.029 140.834 321.104 146.123 321.104 152.558V206.518C321.104 213.396 315.334 218.867 308.465 218.501L272.178 216.569C265.808 216.229 260.816 210.965 260.816 204.586V151.054Z" fill="#4E93EF"/>
<path d="M296.918 146.907C296.918 143.124 300.066 140.1 303.845 140.252C307.417 140.396 310.238 143.333 310.238 146.907V154.497C310.238 157.043 307.45 158.607 305.278 157.28C304.234 156.643 302.922 156.643 301.879 157.28C299.706 158.607 296.918 157.043 296.918 154.497V146.907Z" fill="white"/>
<path d="M379.985 123.251C379.985 116.623 385.357 111.251 391.985 111.251H508.98V242.546H391.985C385.357 242.546 379.985 237.174 379.985 230.546V123.251Z" fill="#FFB9E3"/>
<path d="M437.879 179.78C438.079 179.112 439.561 177.775 443.886 177.775C448.211 177.775 449.893 179.112 450.193 179.78" stroke="#FF46C0" stroke-width="3.84902"/>
<path d="M434.313 186.653C434.298 186.663 434.284 186.674 434.269 186.685C434.269 186.685 434.269 186.685 434.269 186.685C433.962 186.917 433.616 187.278 433.384 187.804C433.164 188.303 433.145 188.735 433.145 188.919C433.146 188.598 433.197 188.31 433.25 188.1C433.281 187.978 433.336 187.791 433.43 187.577C433.465 187.498 433.542 187.329 433.677 187.125M434.313 186.653L434.264 186.677C434.138 186.767 433.938 186.919 433.677 187.125M434.313 186.653L436.098 188.703M434.313 186.653L420.227 201.895C422.284 200.231 425.323 197.721 428.189 195.353C431.881 192.304 435.287 189.491 435.935 189.031C435.953 189.018 435.969 189.01 435.983 189.004C436.014 188.988 436.032 188.98 436.032 188.928C436.032 188.872 436.056 188.739 436.098 188.703M433.677 187.125C432.512 188.042 430.123 190.013 427.576 192.116C427.173 192.449 426.763 192.787 426.35 193.128C423.495 195.487 420.483 197.974 418.439 199.628C418.149 199.844 417.631 199.844 417.34 199.628C414.909 197.661 411.045 194.456 407.746 191.703C406.093 190.324 404.586 189.062 403.479 188.132C402.758 187.527 402.252 187.1 401.973 186.865C401.8 186.719 401.715 186.647 401.721 186.653C399.576 184.644 398.405 182.05 398.405 179.378V179.011C398.597 173.882 403.366 169.339 409.319 169.339C410.837 169.339 413.146 170.278 414.541 171.762C414.545 171.768 414.576 171.808 414.657 171.92C414.665 171.931 414.674 171.944 414.684 171.959C414.776 172.088 414.954 172.339 415.151 172.569C415.54 173.023 416.84 174.374 418.87 173.872L418.178 171.069L418.87 173.872C420.183 173.547 420.852 172.603 421.095 172.229C421.207 172.058 421.31 171.873 421.355 171.794C421.361 171.783 421.365 171.774 421.369 171.768C421.383 171.743 421.393 171.726 421.4 171.715C421.915 171.023 422.769 170.356 423.804 169.856C424.866 169.342 425.858 169.13 426.46 169.13C432.576 169.13 437.182 173.618 437.374 179.009V179.378C437.374 182.281 436.192 184.793 434.202 186.526C433.97 186.727 433.8 186.94 433.677 187.125ZM436.098 188.703C438.729 186.411 440.261 183.1 440.261 179.378V178.961L434.313 186.653L436.098 188.703Z" stroke="#FF68CC" stroke-width="5.77353"/>
<path d="M485.539 186.653C485.525 186.663 485.51 186.674 485.496 186.685C485.496 186.685 485.496 186.685 485.496 186.685C485.189 186.917 484.842 187.278 484.611 187.804C484.39 188.303 484.372 188.735 484.371 188.919C484.372 188.598 484.424 188.31 484.477 188.1C484.508 187.978 484.562 187.791 484.657 187.577C484.692 187.498 484.768 187.329 484.904 187.125M485.539 186.653L485.49 186.677C485.364 186.767 485.165 186.919 484.904 187.125M485.539 186.653L487.324 188.703M485.539 186.653L471.453 201.895C473.511 200.231 476.55 197.721 479.416 195.353C483.108 192.304 486.513 189.491 487.162 189.031C487.18 189.018 487.196 189.01 487.209 189.004C487.24 188.988 487.258 188.98 487.258 188.928C487.258 188.872 487.283 188.739 487.324 188.703M484.904 187.125C483.739 188.042 481.349 190.013 478.803 192.116C478.4 192.449 477.99 192.787 477.577 193.128C474.721 195.487 471.71 197.974 469.665 199.628C469.375 199.844 468.857 199.844 468.567 199.628C466.136 197.661 462.272 194.456 458.973 191.703C457.319 190.324 455.812 189.062 454.705 188.132C453.985 187.527 453.479 187.1 453.2 186.865C453.027 186.719 452.941 186.647 452.947 186.653C450.803 184.644 449.631 182.05 449.631 179.378V179.011C449.823 173.882 454.593 169.339 460.546 169.339C462.063 169.339 464.373 170.278 465.768 171.762C465.772 171.768 465.803 171.808 465.883 171.92C465.891 171.931 465.901 171.944 465.911 171.959C466.002 172.088 466.181 172.339 466.377 172.569C466.766 173.023 468.066 174.374 470.097 173.872L469.404 171.069L470.097 173.872C471.41 173.547 472.079 172.603 472.322 172.229C472.433 172.058 472.537 171.873 472.581 171.794C472.587 171.783 472.592 171.774 472.596 171.768C472.61 171.743 472.62 171.726 472.626 171.715C473.142 171.023 473.995 170.356 475.03 169.856C476.093 169.342 477.085 169.13 477.686 169.13C483.803 169.13 488.408 173.618 488.601 179.009V179.378C488.601 182.281 487.418 184.793 485.428 186.526C485.197 186.727 485.027 186.94 484.904 187.125ZM487.324 188.703C489.955 186.411 491.488 183.1 491.488 179.378V178.961L485.539 186.653L487.324 188.703Z" stroke="#FF68CC" stroke-width="5.77353"/>
<path d="M399.906 148.111C400.227 146.204 402.966 146.204 403.287 148.111C403.377 148.647 403.716 149.108 404.201 149.355L404.71 149.614C406.785 150.669 406.785 153.634 404.71 154.69L404.201 154.949C403.716 155.195 403.377 155.656 403.287 156.192C402.966 158.099 400.227 158.099 399.906 156.192C399.816 155.656 399.477 155.195 398.993 154.949L398.483 154.69C396.408 153.634 396.408 150.669 398.483 149.614L398.993 149.355C399.477 149.108 399.816 148.647 399.906 148.111Z" fill="white"/>
<path d="M416.409 141.006C416.608 139.81 418.327 139.81 418.526 141.006C418.581 141.34 418.791 141.628 419.092 141.784L419.42 141.953C420.725 142.626 420.725 144.492 419.42 145.165L419.092 145.334C418.791 145.49 418.581 145.778 418.526 146.112C418.327 147.308 416.608 147.308 416.409 146.112C416.354 145.778 416.144 145.49 415.843 145.334L415.515 145.165C414.211 144.492 414.211 142.626 415.515 141.953L415.843 141.784C416.144 141.628 416.354 141.34 416.409 141.006Z" fill="white"/>
<path d="M403.39 271.173C399.816 265.619 401.374 258.145 406.868 254.48L494.759 391.089C489.264 394.754 481.913 393.223 478.34 387.668L403.39 271.173Z" fill="#374151"/>
<path fill-rule="evenodd" clip-rule="evenodd" d="M411.159 261.144C413.53 264.828 412.497 269.79 408.854 272.223L405.577 274.411C405.536 274.439 405.481 274.427 405.455 274.385L403.393 271.18C401.319 267.957 400.972 264.088 402.12 260.691C403.532 256.509 408.791 257.462 411.159 261.144Z" fill="#3692FF"/>
<path d="M406.358 275.749C405.913 275.058 406.107 274.128 406.79 273.672L415.447 267.894L417.056 270.396L408.399 276.174C407.716 276.63 406.802 276.44 406.358 275.749Z" fill="#111827"/>
<path d="M637.072 109.273H642.064C643.02 109.273 643.837 109.443 644.517 109.783C645.202 110.123 645.724 110.606 646.081 111.233C646.438 111.854 646.617 112.584 646.617 113.422C646.617 114.289 646.424 115.033 646.037 115.654C645.65 116.275 645.094 116.741 644.367 117.052L647.074 122H644.156L641.722 117.482H639.709V122H637.072V109.273ZM641.572 115.338C643.119 115.338 643.893 114.699 643.893 113.422C643.893 112.771 643.699 112.279 643.312 111.945C642.926 111.605 642.346 111.436 641.572 111.436H639.709V115.338H641.572ZM652.559 122.193C651.592 122.193 650.754 121.994 650.045 121.596C649.342 121.197 648.8 120.629 648.419 119.891C648.038 119.146 647.848 118.273 647.848 117.271C647.848 116.293 648.035 115.432 648.41 114.688C648.791 113.938 649.33 113.357 650.027 112.947C650.725 112.537 651.533 112.332 652.453 112.332C653.309 112.332 654.073 112.514 654.747 112.877C655.427 113.234 655.96 113.776 656.347 114.503C656.739 115.229 656.936 116.117 656.936 117.166V117.904H650.414C650.414 118.379 650.502 118.792 650.678 119.144C650.859 119.495 651.114 119.768 651.442 119.961C651.776 120.148 652.166 120.242 652.611 120.242C653.039 120.242 653.408 120.157 653.719 119.987C654.029 119.812 654.252 119.574 654.387 119.275H656.865C656.742 119.861 656.49 120.374 656.109 120.813C655.729 121.253 655.233 121.593 654.624 121.833C654.021 122.073 653.332 122.193 652.559 122.193ZM654.475 116.27C654.475 115.889 654.39 115.549 654.22 115.25C654.056 114.945 653.824 114.708 653.525 114.538C653.227 114.368 652.887 114.283 652.506 114.283C652.119 114.283 651.768 114.371 651.451 114.547C651.141 114.723 650.892 114.963 650.704 115.268C650.522 115.572 650.426 115.906 650.414 116.27H654.475ZM662.859 125.779C661.992 125.779 661.236 125.656 660.592 125.41C659.947 125.164 659.44 124.815 659.071 124.364C658.708 123.919 658.5 123.395 658.447 122.791H661.014C661.084 123.16 661.283 123.436 661.611 123.617C661.945 123.805 662.379 123.898 662.912 123.898C663.551 123.898 664.046 123.749 664.397 123.45C664.755 123.157 664.934 122.691 664.934 122.053V120.312H664.811C664.611 120.752 664.283 121.121 663.826 121.42C663.375 121.713 662.795 121.859 662.086 121.859C661.348 121.859 660.686 121.687 660.1 121.341C659.514 120.989 659.051 120.462 658.711 119.759C658.371 119.056 658.201 118.191 658.201 117.166C658.201 116.123 658.374 115.238 658.72 114.512C659.065 113.785 659.531 113.24 660.117 112.877C660.709 112.514 661.365 112.332 662.086 112.332C662.807 112.332 663.387 112.499 663.826 112.833C664.266 113.167 664.594 113.574 664.811 114.055H664.916V112.455H667.5V122.105C667.5 122.896 667.304 123.567 666.911 124.118C666.519 124.669 665.974 125.082 665.276 125.357C664.579 125.639 663.773 125.779 662.859 125.779ZM662.895 119.908C663.539 119.908 664.04 119.671 664.397 119.196C664.755 118.716 664.934 118.051 664.934 117.201C664.934 116.34 664.755 115.66 664.397 115.162C664.04 114.658 663.539 114.406 662.895 114.406C662.25 114.406 661.752 114.661 661.4 115.171C661.049 115.675 660.873 116.352 660.873 117.201C660.873 118.039 661.046 118.701 661.392 119.188C661.743 119.668 662.244 119.908 662.895 119.908ZM669.521 112.455H672.123V122H669.521V112.455ZM670.822 111.207C670.564 111.207 670.324 111.148 670.102 111.031C669.885 110.908 669.712 110.747 669.583 110.548C669.46 110.343 669.398 110.123 669.398 109.889C669.398 109.648 669.46 109.426 669.583 109.221C669.712 109.016 669.885 108.854 670.102 108.737C670.324 108.614 670.564 108.553 670.822 108.553C671.074 108.553 671.309 108.614 671.525 108.737C671.742 108.854 671.912 109.016 672.035 109.221C672.164 109.426 672.229 109.648 672.229 109.889C672.229 110.123 672.164 110.343 672.035 110.548C671.912 110.747 671.742 110.908 671.525 111.031C671.309 111.148 671.074 111.207 670.822 111.207ZM679.594 115.285C679.541 114.951 679.374 114.685 679.093 114.485C678.812 114.28 678.457 114.178 678.029 114.178C677.748 114.178 677.493 114.222 677.265 114.31C677.042 114.392 676.866 114.509 676.737 114.661C676.608 114.808 676.547 114.975 676.553 115.162C676.535 115.613 676.945 115.93 677.783 116.111L679.488 116.463C680.414 116.656 681.103 116.964 681.554 117.386C682.011 117.808 682.242 118.361 682.248 119.047C682.242 119.668 682.061 120.216 681.703 120.69C681.352 121.165 680.856 121.534 680.218 121.798C679.579 122.062 678.844 122.193 678.012 122.193C677.162 122.193 676.427 122.073 675.806 121.833C675.185 121.587 674.695 121.238 674.338 120.787C673.986 120.33 673.775 119.791 673.705 119.17H676.324C676.383 119.545 676.559 119.829 676.852 120.022C677.145 120.216 677.531 120.312 678.012 120.312C678.486 120.312 678.867 120.222 679.154 120.04C679.447 119.858 679.594 119.615 679.594 119.311C679.594 119.064 679.488 118.865 679.277 118.713C679.072 118.555 678.744 118.426 678.293 118.326L676.711 118.01C675.809 117.834 675.123 117.515 674.654 117.052C674.186 116.589 673.957 116.006 673.969 115.303C673.963 114.699 674.124 114.175 674.452 113.729C674.78 113.278 675.249 112.933 675.858 112.692C676.468 112.452 677.18 112.332 677.994 112.332C678.785 112.332 679.477 112.452 680.068 112.692C680.66 112.933 681.123 113.275 681.457 113.721C681.797 114.16 681.99 114.682 682.037 115.285H679.594ZM688.875 114.406H687.082V119.064C687.082 119.416 687.158 119.662 687.311 119.803C687.463 119.943 687.686 120.02 687.979 120.031C688.354 120.031 688.699 120.014 689.016 119.979V122.035C688.705 122.094 688.242 122.123 687.627 122.123C686.648 122.123 685.878 121.897 685.315 121.446C684.753 120.995 684.475 120.324 684.48 119.434V114.406H683.162V112.455H684.48V110.17H687.082V112.455H688.875V114.406ZM694.729 122.193C693.762 122.193 692.924 121.994 692.215 121.596C691.512 121.197 690.97 120.629 690.589 119.891C690.208 119.146 690.018 118.273 690.018 117.271C690.018 116.293 690.205 115.432 690.58 114.688C690.961 113.938 691.5 113.357 692.197 112.947C692.895 112.537 693.703 112.332 694.623 112.332C695.479 112.332 696.243 112.514 696.917 112.877C697.597 113.234 698.13 113.776 698.517 114.503C698.909 115.229 699.105 116.117 699.105 117.166V117.904H692.584C692.584 118.379 692.672 118.792 692.848 119.144C693.029 119.495 693.284 119.768 693.612 119.961C693.946 120.148 694.336 120.242 694.781 120.242C695.209 120.242 695.578 120.157 695.889 119.987C696.199 119.812 696.422 119.574 696.557 119.275H699.035C698.912 119.861 698.66 120.374 698.279 120.813C697.898 121.253 697.403 121.593 696.794 121.833C696.19 122.073 695.502 122.193 694.729 122.193ZM696.645 116.27C696.645 115.889 696.56 115.549 696.39 115.25C696.226 114.945 695.994 114.708 695.695 114.538C695.396 114.368 695.057 114.283 694.676 114.283C694.289 114.283 693.938 114.371 693.621 114.547C693.311 114.723 693.062 114.963 692.874 115.268C692.692 115.572 692.596 115.906 692.584 116.27H696.645ZM700.74 112.455H703.254V114.107H703.359C703.529 113.527 703.819 113.085 704.229 112.78C704.64 112.47 705.117 112.314 705.662 112.314C705.961 112.314 706.236 112.344 706.488 112.402V114.723C706.359 114.688 706.187 114.655 705.97 114.626C705.753 114.597 705.557 114.582 705.381 114.582C704.994 114.582 704.646 114.667 704.335 114.837C704.024 115.007 703.781 115.244 703.605 115.549C703.43 115.848 703.342 116.188 703.342 116.568V122H700.74V112.455Z" fill="#3692FF"/>
<path d="M656.977 158H654.086V167.883C655.661 167.753 657.042 167.609 658.227 167.453L658.578 171.125C655.414 171.659 652.074 172.017 648.559 172.199C645.056 172.368 641.339 172.453 637.406 172.453L636.859 168.469C637.641 168.469 638.93 168.456 640.727 168.43V158H637.797V154.016H656.977V158ZM665.258 161.086H670.062V165.227H665.258V177.258H660.258V151.086H665.258V161.086ZM666.547 185.969H642.211V174.758H647.172V181.984H666.547V185.969ZM645.531 168.332C646.391 168.306 647.641 168.254 649.281 168.176V158H645.531V168.332ZM703.245 186.594H698.48V168.664H695.277V184.953H690.55V151.555H695.277V164.602H698.48V151.047H703.245V186.594ZM687.581 177.648H673.441V154.719H687.581V177.648ZM678.089 173.742H682.933V158.664H678.089V173.742ZM740.295 170.695H707.756V166.984H740.295V170.695ZM736.389 180.852H716.467V182.883H737.444V186.281H711.506V177.688H731.467V175.891H711.467V172.453H736.389V180.852ZM736.35 160.031H716.78V161.945H736.975V165.305H711.819V156.867H731.35V155.07H711.741V151.672H736.35V160.031ZM783.302 177.922H778.302V175.109H771.505V171.711H778.302V151.086H783.302V177.922ZM784.083 185.969H757.598V175.344H762.559V170.617C760.137 170.721 757.169 170.773 753.653 170.773L753.067 166.828C757.651 166.802 761.772 166.724 765.43 166.594C769.089 166.464 772.572 166.19 775.88 165.773L776.153 169.328C773.445 169.784 770.58 170.122 767.559 170.344V177.102H762.559V181.984H784.083V185.969ZM764.63 152.297C766.335 152.284 767.859 152.544 769.2 153.078C770.541 153.612 771.589 154.367 772.345 155.344C773.113 156.307 773.497 157.414 773.497 158.664C773.497 159.901 773.119 160.995 772.364 161.945C771.609 162.896 770.554 163.632 769.2 164.152C767.859 164.66 766.335 164.914 764.63 164.914C762.885 164.914 761.335 164.66 759.981 164.152C758.627 163.632 757.572 162.902 756.817 161.965C756.062 161.014 755.684 159.914 755.684 158.664C755.684 157.414 756.055 156.307 756.798 155.344C757.553 154.367 758.608 153.612 759.962 153.078C761.329 152.544 762.885 152.284 764.63 152.297ZM764.63 155.93C763.341 155.93 762.312 156.171 761.544 156.652C760.776 157.134 760.398 157.805 760.411 158.664C760.398 159.51 760.769 160.168 761.524 160.637C762.292 161.092 763.328 161.32 764.63 161.32C765.854 161.32 766.843 161.086 767.598 160.617C768.367 160.148 768.757 159.497 768.77 158.664C768.757 157.805 768.367 157.134 767.598 156.652C766.843 156.171 765.854 155.93 764.63 155.93ZM816.602 164.953H821.836V169.055H816.602V186.594H811.68V151.047H816.602V164.953ZM809.258 160.344H788.359V156.359H796.406V151.594H801.406V156.359H809.258V160.344ZM798.906 162.336C800.625 162.336 802.168 162.701 803.535 163.43C804.915 164.146 805.996 165.148 806.777 166.438C807.572 167.727 807.969 169.185 807.969 170.812C807.969 172.44 807.572 173.898 806.777 175.188C805.996 176.477 804.915 177.486 803.535 178.215C802.168 178.931 800.625 179.289 798.906 179.289C797.174 179.289 795.618 178.931 794.238 178.215C792.858 177.486 791.771 176.477 790.977 175.188C790.195 173.898 789.805 172.44 789.805 170.812C789.805 169.185 790.195 167.727 790.977 166.438C791.771 165.148 792.858 164.146 794.238 163.43C795.618 162.701 797.174 162.336 798.906 162.336ZM798.906 166.359C798.073 166.372 797.324 166.561 796.66 166.926C796.009 167.29 795.495 167.805 795.117 168.469C794.753 169.133 794.57 169.914 794.57 170.812C794.57 171.724 794.753 172.512 795.117 173.176C795.495 173.84 796.009 174.348 796.66 174.699C797.324 175.038 798.073 175.201 798.906 175.188C799.74 175.201 800.482 175.038 801.133 174.699C801.784 174.348 802.292 173.84 802.656 173.176C803.021 172.512 803.203 171.724 803.203 170.812C803.203 169.914 803.021 169.133 802.656 168.469C802.292 167.805 801.784 167.29 801.133 166.926C800.482 166.561 799.74 166.372 798.906 166.359ZM852.792 164.641H827.948V152.297H832.909V160.734H852.792V164.641ZM856.425 172.375H823.886V168.469H856.425V172.375ZM853.027 185.812H827.636V175.266H832.636V181.828H853.027V185.812ZM650.023 212.633C650.023 214.104 650.316 215.51 650.902 216.852C651.488 218.18 652.387 219.371 653.598 220.426C654.822 221.467 656.339 222.268 658.148 222.828L655.492 226.695C653.643 226.083 652.055 225.198 650.727 224.039C649.398 222.88 648.344 221.507 647.562 219.918C646.768 221.754 645.668 223.342 644.262 224.684C642.868 226.012 641.182 227.008 639.203 227.672L636.508 223.766C638.422 223.128 640.01 222.216 641.273 221.031C642.536 219.846 643.474 218.499 644.086 216.988C644.698 215.465 645.01 213.857 645.023 212.164V208.922H650.023V212.633ZM665.258 215.367H670.062V219.508H665.258V228.141H660.258V207.047H665.258V215.367ZM653.617 228.844C656.065 228.844 658.188 229.117 659.984 229.664C661.781 230.211 663.168 230.999 664.145 232.027C665.121 233.056 665.609 234.286 665.609 235.719C665.609 237.164 665.121 238.401 664.145 239.43C663.181 240.458 661.794 241.24 659.984 241.773C658.188 242.32 656.065 242.594 653.617 242.594C651.117 242.594 648.949 242.32 647.113 241.773C645.29 241.24 643.884 240.458 642.895 239.43C641.918 238.401 641.43 237.164 641.43 235.719C641.43 234.286 641.918 233.056 642.895 232.027C643.884 230.999 645.297 230.211 647.133 229.664C648.969 229.117 651.13 228.844 653.617 228.844ZM653.617 232.75C651.26 232.75 649.47 233.004 648.246 233.512C647.022 234.007 646.417 234.742 646.43 235.719C646.391 237.698 648.786 238.688 653.617 238.688C658.331 238.688 660.688 237.698 660.688 235.719C660.688 234.742 660.082 234.007 658.871 233.512C657.673 233.004 655.922 232.75 653.617 232.75ZM704.847 227.633H691.097V230.68H700.98V242.203H676.175V230.68H686.136V227.633H672.425V223.688H704.847V227.633ZM701.956 212.008H697.308V217.438H701.722V221.422H675.511V217.438H679.886V212.008H675.277V208.023H701.956V212.008ZM681.097 238.219H696.097V234.547H681.097V238.219ZM692.308 217.438V212.008H684.886V217.438H692.308ZM724.006 207.555C726.728 207.555 729.052 207.789 730.979 208.258C732.906 208.727 734.377 209.417 735.393 210.328C736.409 211.227 736.923 212.32 736.936 213.609C736.923 214.911 736.409 216.018 735.393 216.93C734.377 217.841 732.906 218.531 730.979 219C729.052 219.469 726.728 219.703 724.006 219.703C721.272 219.703 718.935 219.469 716.995 219C715.054 218.531 713.577 217.841 712.561 216.93C711.545 216.018 711.037 214.911 711.037 213.609C711.037 212.32 711.545 211.227 712.561 210.328C713.577 209.417 715.054 208.727 716.995 208.258C718.935 207.789 721.272 207.555 724.006 207.555ZM724.006 211.188C721.415 211.188 719.468 211.396 718.166 211.812C716.877 212.216 716.246 212.815 716.272 213.609C716.259 214.469 716.877 215.087 718.127 215.465C719.377 215.842 721.337 216.031 724.006 216.031C726.689 216.031 728.655 215.842 729.905 215.465C731.155 215.087 731.78 214.469 731.78 213.609C731.78 212.815 731.135 212.216 729.846 211.812C728.557 211.396 726.61 211.188 724.006 211.188ZM740.217 225.328H707.795V221.383H740.217V225.328ZM736.272 236.461H716.467V238.609H737.209V242.359H711.584V232.984H731.35V231.031H711.545V227.398H736.272V236.461ZM785.684 227.359H753.184V223.297H785.684V227.359ZM781.973 220.797H757.13V207.984H781.778V212.008H762.091V216.852H781.973V220.797ZM769.356 229.508C771.921 229.508 774.128 229.762 775.977 230.27C777.826 230.777 779.246 231.52 780.235 232.496C781.225 233.473 781.726 234.651 781.739 236.031C781.726 237.424 781.225 238.609 780.235 239.586C779.246 240.576 777.826 241.324 775.977 241.832C774.128 242.34 771.921 242.594 769.356 242.594C766.765 242.594 764.532 242.34 762.657 241.832C760.795 241.324 759.369 240.576 758.38 239.586C757.39 238.609 756.895 237.424 756.895 236.031C756.895 234.651 757.39 233.473 758.38 232.496C759.382 231.52 760.815 230.777 762.677 230.27C764.539 229.762 766.765 229.508 769.356 229.508ZM769.356 233.297C766.895 233.297 765.04 233.531 763.79 234C762.553 234.456 761.947 235.133 761.973 236.031C761.934 237.88 764.395 238.805 769.356 238.805C774.239 238.805 776.7 237.88 776.739 236.031C776.726 235.133 776.095 234.456 774.845 234C773.595 233.531 771.765 233.297 769.356 233.297ZM821.055 230.094H788.516V226.109H802.305V223.531H792.578V213.766H812.109V211.578H792.5V207.711H817.109V217.359H797.539V219.703H817.773V223.531H807.266V226.109H821.055V230.094ZM817.305 242.438H812.266V236.031H792.148V232.125H817.305V242.438ZM851.972 220.953H857.206V225.055H851.972V242.594H847.05V207.047H851.972V220.953ZM844.628 216.344H823.73V212.359H831.777V207.594H836.777V212.359H844.628V216.344ZM834.277 218.336C835.995 218.336 837.538 218.701 838.905 219.43C840.286 220.146 841.366 221.148 842.148 222.438C842.942 223.727 843.339 225.185 843.339 226.812C843.339 228.44 842.942 229.898 842.148 231.188C841.366 232.477 840.286 233.486 838.905 234.215C837.538 234.931 835.995 235.289 834.277 235.289C832.545 235.289 830.989 234.931 829.609 234.215C828.228 233.486 827.141 232.477 826.347 231.188C825.566 229.898 825.175 228.44 825.175 226.812C825.175 225.185 825.566 223.727 826.347 222.438C827.141 221.148 828.228 220.146 829.609 219.43C830.989 218.701 832.545 218.336 834.277 218.336ZM834.277 222.359C833.443 222.372 832.695 222.561 832.03 222.926C831.379 223.29 830.865 223.805 830.488 224.469C830.123 225.133 829.941 225.914 829.941 226.812C829.941 227.724 830.123 228.512 830.488 229.176C830.865 229.84 831.379 230.348 832.03 230.699C832.695 231.038 833.443 231.201 834.277 231.188C835.11 231.201 835.852 231.038 836.503 230.699C837.154 230.348 837.662 229.84 838.027 229.176C838.391 228.512 838.573 227.724 838.573 226.812C838.573 225.914 838.391 225.133 838.027 224.469C837.662 223.805 837.154 223.29 836.503 222.926C835.852 222.561 835.11 222.372 834.277 222.359ZM870.702 215.992C870.702 219.169 871.209 222.066 872.225 224.684C873.241 227.301 874.881 229.339 877.147 230.797L874.452 234.664C871.587 232.932 869.536 230.087 868.299 226.129C867.635 228.212 866.756 230.055 865.663 231.656C864.569 233.245 863.241 234.508 861.678 235.445L858.631 231.773C861.118 230.224 862.941 228.069 864.1 225.309C865.272 222.535 865.858 219.508 865.858 216.227V210.094H870.702V215.992ZM890.116 242.594H885.35V207.047H890.116V242.594ZM882.655 240.953H878.006V223.102H873.397V219.039H878.006V207.555H882.655V240.953ZM927.205 238.453H894.666V234.352H901.931V225.66C900.525 224.814 899.438 223.772 898.67 222.535C897.901 221.285 897.517 219.885 897.517 218.336C897.517 216.448 898.09 214.781 899.236 213.336C900.382 211.891 901.964 210.771 903.982 209.977C906.013 209.169 908.311 208.766 910.877 208.766C913.429 208.766 915.714 209.169 917.732 209.977C919.763 210.771 921.358 211.891 922.517 213.336C923.676 214.781 924.262 216.448 924.275 218.336C924.262 219.846 923.878 221.22 923.123 222.457C922.38 223.681 921.332 224.716 919.978 225.562V234.352H927.205V238.453ZM910.877 212.711C909.184 212.711 907.699 212.932 906.423 213.375C905.16 213.818 904.177 214.462 903.474 215.309C902.784 216.142 902.439 217.151 902.439 218.336C902.439 219.482 902.784 220.478 903.474 221.324C904.177 222.171 905.167 222.822 906.443 223.277C907.719 223.733 909.197 223.961 910.877 223.961C912.543 223.961 914.015 223.733 915.291 223.277C916.567 222.822 917.556 222.171 918.259 221.324C918.976 220.478 919.34 219.482 919.353 218.336C919.34 217.164 918.982 216.155 918.279 215.309C917.576 214.462 916.586 213.818 915.31 213.375C914.034 212.932 912.556 212.711 910.877 212.711ZM914.939 234.352V227.457C913.598 227.704 912.244 227.828 910.877 227.828C909.418 227.828 908.077 227.704 906.853 227.457V234.352H914.939Z" fill="#374151"/>
<path d="M642.469 284.562C643.414 284.562 644.266 284.82 645.023 285.336C645.781 285.844 646.395 286.574 646.863 287.527C647.34 288.473 647.633 289.586 647.742 290.867H652.078V282.992H654.281V304.039H652.078V292.672H647.766C647.688 294.016 647.414 295.188 646.945 296.188C646.477 297.188 645.855 297.957 645.082 298.496C644.309 299.035 643.438 299.305 642.469 299.305C641.422 299.305 640.496 299.004 639.691 298.402C638.887 297.793 638.258 296.934 637.805 295.824C637.359 294.707 637.141 293.406 637.148 291.922C637.141 290.445 637.359 289.152 637.805 288.043C638.258 286.926 638.887 286.066 639.691 285.465C640.504 284.863 641.43 284.562 642.469 284.562ZM642.469 286.555C641.836 286.555 641.277 286.773 640.793 287.211C640.309 287.648 639.93 288.273 639.656 289.086C639.391 289.891 639.258 290.836 639.258 291.922C639.258 293.016 639.391 293.969 639.656 294.781C639.93 295.594 640.309 296.219 640.793 296.656C641.277 297.094 641.836 297.312 642.469 297.312C643.102 297.312 643.66 297.094 644.145 296.656C644.629 296.219 645.004 295.594 645.27 294.781C645.543 293.969 645.68 293.016 645.68 291.922C645.68 290.836 645.543 289.891 645.27 289.086C645.004 288.273 644.629 287.648 644.145 287.211C643.66 286.773 643.102 286.555 642.469 286.555ZM675.773 303.547H660.961V296.961H663.188V301.742H675.773V303.547ZM675.211 298.25H673.031V290.516H669.469V288.711H673.031V283.016H675.211V298.25ZM663.398 286.484H660.188V293.188C661.406 293.148 662.547 293.008 663.609 292.766L663.797 294.594C662.977 294.773 662.215 294.887 661.512 294.934C660.816 294.973 659.969 294.992 658.969 294.992H658.031V284.68H663.398V286.484ZM670.383 286.484H666.727V293.199C667.617 293.184 668.395 293.145 669.059 293.082C669.723 293.012 670.391 292.898 671.062 292.742L671.297 294.547C670.453 294.734 669.629 294.855 668.824 294.91C668.02 294.965 666.945 294.992 665.602 294.992H664.523V284.68H670.383V286.484ZM703.266 293.469H694.781V295.297H700.852V300.219H688.617V302.07H701.438V303.781H686.438V298.602H698.648V297.008H686.414V295.297H692.555V293.469H684.117V291.688H703.266V293.469ZM700.805 290.141H686.578V283.672H700.805V290.141ZM688.758 288.383H698.578V285.43H688.758V288.383ZM722.367 298.484H720.141V291.195H715.781V289.344H720.141V283.016H722.367V298.484ZM715.922 284.586C715.914 286.391 715.512 288.047 714.715 289.555C713.926 291.062 712.797 292.375 711.328 293.492C709.859 294.609 708.117 295.492 706.102 296.141L705.164 294.359C706.727 293.852 708.105 293.207 709.301 292.426C710.496 291.637 711.453 290.734 712.172 289.719C712.891 288.695 713.324 287.602 713.473 286.438H706.242V284.586H715.922ZM722.906 303.547H708.844V296.891H711.094V301.742H722.906V303.547ZM742.992 304.039H740.766V282.992H742.992V304.039ZM731.766 284.562C732.805 284.562 733.734 284.867 734.555 285.477C735.375 286.078 736.016 286.938 736.477 288.055C736.945 289.164 737.18 290.453 737.18 291.922C737.18 293.398 736.945 294.695 736.477 295.812C736.016 296.93 735.375 297.793 734.555 298.402C733.734 299.004 732.805 299.305 731.766 299.305C730.711 299.305 729.773 299.004 728.953 298.402C728.133 297.793 727.488 296.934 727.02 295.824C726.559 294.707 726.328 293.406 726.328 291.922C726.328 290.445 726.559 289.152 727.02 288.043C727.488 286.926 728.133 286.066 728.953 285.465C729.773 284.863 730.711 284.562 731.766 284.562ZM731.766 286.555C731.117 286.555 730.543 286.773 730.043 287.211C729.551 287.648 729.168 288.273 728.895 289.086C728.621 289.891 728.484 290.836 728.484 291.922C728.484 293.016 728.621 293.969 728.895 294.781C729.168 295.594 729.551 296.219 730.043 296.656C730.543 297.094 731.117 297.312 731.766 297.312C732.406 297.312 732.973 297.094 733.465 296.656C733.957 296.219 734.34 295.594 734.613 294.781C734.887 293.969 735.023 293.016 735.023 291.922C735.023 290.836 734.887 289.891 734.613 289.086C734.34 288.273 733.957 287.648 733.465 287.211C732.973 286.773 732.406 286.555 731.766 286.555ZM765.516 295.297H746.344V293.516H765.516V295.297ZM763.359 291.406H748.734V283.859H763.148V285.641H750.961V289.578H763.359V291.406ZM763.5 303.547H748.758V297.359H750.961V301.719H763.5V303.547ZM784.875 286.695H782.883V293.281C783.891 293.195 784.859 293.102 785.789 293L785.93 294.664C784.031 294.969 782.008 295.176 779.859 295.285C777.719 295.387 775.5 295.438 773.203 295.438L772.945 293.609C773.461 293.609 774.32 293.602 775.523 293.586V286.695H773.531V284.891H784.875V286.695ZM789.445 289.227H792.492V291.102H789.445V298.461H787.219V283.016H789.445V289.227ZM790.336 303.547H776.133V296.984H778.359V301.742H790.336V303.547ZM777.68 293.527C778.789 293.504 779.797 293.465 780.703 293.41V286.695H777.68V293.527ZM811.758 303.992H809.625V293.047H807.023V302.961H804.914V283.391H807.023V291.219H809.625V282.992H811.758V303.992ZM802.547 298.461H794.391V285.359H802.547V298.461ZM796.5 296.68H800.461V287.117H796.5V296.68ZM830.789 291.5H834.164V293.352H830.789V303.992H828.586V282.992H830.789V291.5ZM826.758 288.102H814.312V286.273H819.492V283.273H821.719V286.273H826.758V288.102ZM820.617 289.648C821.609 289.648 822.5 289.855 823.289 290.27C824.078 290.684 824.699 291.262 825.152 292.004C825.605 292.746 825.836 293.586 825.844 294.523C825.836 295.469 825.605 296.312 825.152 297.055C824.699 297.797 824.078 298.375 823.289 298.789C822.5 299.203 821.609 299.414 820.617 299.422C819.617 299.414 818.719 299.203 817.922 298.789C817.133 298.375 816.512 297.797 816.059 297.055C815.613 296.312 815.391 295.469 815.391 294.523C815.391 293.586 815.613 292.746 816.059 292.004C816.512 291.262 817.133 290.684 817.922 290.27C818.719 289.855 819.617 289.648 820.617 289.648ZM820.617 291.477C820.031 291.477 819.5 291.605 819.023 291.863C818.547 292.121 818.176 292.48 817.91 292.941C817.645 293.402 817.516 293.93 817.523 294.523C817.516 295.125 817.645 295.656 817.91 296.117C818.176 296.578 818.543 296.934 819.012 297.184C819.488 297.434 820.023 297.555 820.617 297.547C821.203 297.555 821.73 297.434 822.199 297.184C822.676 296.934 823.047 296.578 823.312 296.117C823.578 295.656 823.711 295.125 823.711 294.523C823.711 293.93 823.578 293.402 823.312 292.941C823.047 292.48 822.676 292.121 822.199 291.863C821.73 291.605 821.203 291.477 820.617 291.477ZM852.164 287.07C852.164 288.25 852.148 289.277 852.117 290.152C852.094 291.02 852.023 292.023 851.906 293.164C851.797 294.305 851.617 295.539 851.367 296.867L849.117 296.633C849.367 295.375 849.551 294.191 849.668 293.082C849.793 291.965 849.867 290.973 849.891 290.105C849.922 289.238 849.938 288.227 849.938 287.07V286.812H837.188V285.008H852.164V287.07ZM854.32 301.156H835.172V299.305H842.461V291.898H844.664V299.305H854.32V301.156ZM879.188 294.664H876.961V283.016H879.188V294.664ZM869.414 285.805C869.406 286.727 869.613 287.613 870.035 288.465C870.465 289.309 871.074 290.051 871.863 290.691C872.66 291.332 873.586 291.812 874.641 292.133L873.562 293.891C872.336 293.492 871.27 292.898 870.363 292.109C869.465 291.32 868.773 290.387 868.289 289.309C867.805 290.473 867.102 291.488 866.18 292.355C865.266 293.215 864.188 293.852 862.945 294.266L861.844 292.508C862.922 292.156 863.859 291.641 864.656 290.961C865.453 290.273 866.066 289.484 866.496 288.594C866.926 287.703 867.141 286.773 867.141 285.805V283.766H869.414V285.805ZM879.328 297.594H876.562V301.93H879.539V303.734H864.914V301.93H867.914V297.594H865.102V295.812H879.328V297.594ZM874.359 301.93V297.594H870.117V301.93H874.359ZM901.664 295.742H882.516V293.961H901.664V295.742ZM899.508 303.547H884.93V297.453H887.18V301.742H899.508V303.547ZM892.078 283.695C893.586 283.688 894.902 283.852 896.027 284.188C897.16 284.523 898.035 285.008 898.652 285.641C899.27 286.273 899.578 287.023 899.578 287.891C899.578 288.766 899.27 289.523 898.652 290.164C898.043 290.797 897.172 291.285 896.039 291.629C894.906 291.973 893.586 292.148 892.078 292.156C890.562 292.148 889.238 291.973 888.105 291.629C886.98 291.285 886.109 290.797 885.492 290.164C884.883 289.523 884.578 288.766 884.578 287.891C884.578 287.023 884.883 286.273 885.492 285.641C886.109 285.008 886.98 284.523 888.105 284.188C889.238 283.852 890.562 283.688 892.078 283.695ZM892.078 285.477C891.016 285.477 890.09 285.574 889.301 285.77C888.52 285.965 887.918 286.246 887.496 286.613C887.074 286.973 886.867 287.398 886.875 287.891C886.867 288.398 887.07 288.836 887.484 289.203C887.906 289.57 888.508 289.852 889.289 290.047C890.078 290.234 891.008 290.328 892.078 290.328C893.148 290.328 894.074 290.234 894.855 290.047C895.637 289.852 896.234 289.57 896.648 289.203C897.07 288.836 897.281 288.398 897.281 287.891C897.281 287.398 897.07 286.973 896.648 286.613C896.227 286.246 895.625 285.965 894.844 285.77C894.062 285.574 893.141 285.477 892.078 285.477ZM916.359 286.344C916.359 287.266 916.562 288.148 916.969 288.992C917.383 289.836 917.969 290.582 918.727 291.23C919.492 291.871 920.391 292.359 921.422 292.695L920.227 294.453C919.094 294.055 918.102 293.465 917.25 292.684C916.406 291.895 915.754 290.977 915.293 289.93C914.832 291.125 914.16 292.164 913.277 293.047C912.402 293.922 911.359 294.586 910.148 295.039L908.953 293.258C910.031 292.875 910.957 292.328 911.73 291.617C912.512 290.898 913.109 290.07 913.523 289.133C913.938 288.195 914.148 287.203 914.156 286.156V284.094H916.359V286.344ZM925.617 288.266H928.664V290.141H925.617V295.672H923.391V282.992H925.617V288.266ZM918.844 296.164C920.273 296.164 921.512 296.32 922.559 296.633C923.605 296.938 924.406 297.383 924.961 297.969C925.523 298.547 925.805 299.242 925.805 300.055C925.805 300.875 925.523 301.578 924.961 302.164C924.406 302.75 923.605 303.195 922.559 303.5C921.512 303.805 920.273 303.953 918.844 303.945C917.398 303.953 916.145 303.805 915.082 303.5C914.02 303.195 913.203 302.75 912.633 302.164C912.07 301.578 911.789 300.875 911.789 300.055C911.789 299.242 912.07 298.547 912.633 297.969C913.203 297.383 914.02 296.938 915.082 296.633C916.145 296.32 917.398 296.164 918.844 296.164ZM918.844 297.922C917.836 297.922 916.969 298.008 916.242 298.18C915.516 298.344 914.961 298.586 914.578 298.906C914.195 299.227 914.008 299.609 914.016 300.055C914.008 300.742 914.426 301.27 915.27 301.637C916.113 302.004 917.305 302.195 918.844 302.211C920.367 302.195 921.543 302.004 922.371 301.637C923.207 301.27 923.625 300.742 923.625 300.055C923.625 299.383 923.203 298.859 922.359 298.484C921.523 298.109 920.352 297.922 918.844 297.922ZM949.008 294.828H940.523V297.078H946.664V303.734H932.156V297.078H938.32V294.828H929.859V293.047H949.008V294.828ZM947.203 285.453H944.156V289.461H947.109V291.266H931.711V289.461H934.688V285.453H931.617V283.648H947.203V285.453ZM934.359 301.93H944.508V298.836H934.359V301.93ZM941.93 289.461V285.453H936.891V289.461H941.93ZM960.164 283.344C961.742 283.344 963.09 283.484 964.207 283.766C965.332 284.039 966.188 284.445 966.773 284.984C967.367 285.523 967.664 286.18 967.664 286.953C967.664 287.727 967.367 288.387 966.773 288.934C966.188 289.473 965.332 289.883 964.207 290.164C963.09 290.445 961.742 290.586 960.164 290.586C958.586 290.586 957.234 290.445 956.109 290.164C954.992 289.883 954.137 289.473 953.543 288.934C952.957 288.387 952.664 287.727 952.664 286.953C952.664 286.18 952.957 285.523 953.543 284.984C954.137 284.445 954.992 284.039 956.109 283.766C957.234 283.484 958.586 283.344 960.164 283.344ZM960.164 284.984C958.492 284.984 957.207 285.156 956.309 285.5C955.41 285.844 954.969 286.328 954.984 286.953C954.977 287.594 955.414 288.082 956.297 288.418C957.188 288.754 958.477 288.922 960.164 288.922C961.844 288.922 963.129 288.754 964.02 288.418C964.918 288.082 965.367 287.594 965.367 286.953C965.367 286.328 964.914 285.844 964.008 285.5C963.109 285.156 961.828 284.984 960.164 284.984ZM969.75 293.656H950.602V291.875H969.75V293.656ZM967.336 300.195H955.102V302.07H967.922V303.781H952.922V298.578H965.133V296.938H952.898V295.273H967.336V300.195ZM642.281 330.156H651.914V328.023H654.117V335.734H640.055V328.023H642.281V330.156ZM651.914 333.93V331.867H642.281V333.93H651.914ZM654.117 327.062H651.891V315.016H654.117V327.062ZM638.836 324.062C641.07 324.062 643.148 324.023 645.07 323.945C647 323.867 648.828 323.711 650.555 323.477L650.695 325.07C648.984 325.359 647.148 325.566 645.188 325.691V328.609H642.984V325.809C641.57 325.863 639.602 325.891 637.078 325.891L636.797 324.062H638.836ZM645.023 316.492C645.023 317.164 645.227 317.797 645.633 318.391C646.047 318.984 646.633 319.5 647.391 319.938C648.156 320.375 649.055 320.703 650.086 320.922L649.102 322.586C647.891 322.32 646.84 321.895 645.949 321.309C645.059 320.715 644.383 320 643.922 319.164C643.461 320.07 642.781 320.852 641.883 321.508C640.984 322.156 639.914 322.633 638.672 322.938L637.664 321.203C638.703 320.969 639.605 320.621 640.371 320.16C641.137 319.691 641.723 319.145 642.129 318.52C642.543 317.887 642.75 317.211 642.75 316.492V315.508H645.023V316.492ZM675.562 335.992H673.453V314.992H675.562V335.992ZM671.133 334.961H669.023V325.211H664.922C663.609 327.758 661.539 329.859 658.711 331.516L657.445 329.922C659.633 328.625 661.293 327.102 662.426 325.352C663.566 323.602 664.23 321.625 664.418 319.422H658.43V317.594H666.633C666.617 319.75 666.305 321.695 665.695 323.43H669.023V315.531H671.133V334.961ZM703.289 326.688H684.117V324.859H703.289V326.688ZM701.062 323.031H686.508V315.742H700.922V317.57H688.711V321.227H701.062V323.031ZM693.68 328.328C695.188 328.328 696.48 328.477 697.559 328.773C698.645 329.07 699.477 329.508 700.055 330.086C700.633 330.656 700.922 331.344 700.922 332.148C700.922 332.953 700.633 333.641 700.055 334.211C699.477 334.781 698.645 335.215 697.559 335.512C696.473 335.809 695.18 335.953 693.68 335.945C692.172 335.953 690.871 335.809 689.777 335.512C688.684 335.215 687.844 334.781 687.258 334.211C686.68 333.641 686.391 332.953 686.391 332.148C686.391 331.344 686.68 330.656 687.258 330.086C687.844 329.508 688.68 329.07 689.766 328.773C690.859 328.477 692.164 328.328 693.68 328.328ZM693.68 330.039C692.07 330.055 690.828 330.246 689.953 330.613C689.078 330.973 688.641 331.484 688.641 332.148C688.641 332.812 689.078 333.328 689.953 333.695C690.828 334.055 692.07 334.234 693.68 334.234C695.266 334.234 696.496 334.055 697.371 333.695C698.254 333.328 698.695 332.812 698.695 332.148C698.695 331.484 698.258 330.973 697.383 330.613C696.508 330.246 695.273 330.055 693.68 330.039ZM724.055 328.258H704.836V326.453H713.344V324.461H707.297V319.117H719.414V317.242H707.25V315.484H721.641V320.758H709.5V322.727H722.062V324.461H715.547V326.453H724.055V328.258ZM721.758 335.828H719.508V331.516H706.992V329.734H721.758V335.828ZM741.961 323.5H745.336V325.352H741.961V335.992H739.758V314.992H741.961V323.5ZM737.93 320.102H725.484V318.273H730.664V315.273H732.891V318.273H737.93V320.102ZM731.789 321.648C732.781 321.648 733.672 321.855 734.461 322.27C735.25 322.684 735.871 323.262 736.324 324.004C736.777 324.746 737.008 325.586 737.016 326.523C737.008 327.469 736.777 328.312 736.324 329.055C735.871 329.797 735.25 330.375 734.461 330.789C733.672 331.203 732.781 331.414 731.789 331.422C730.789 331.414 729.891 331.203 729.094 330.789C728.305 330.375 727.684 329.797 727.23 329.055C726.785 328.312 726.562 327.469 726.562 326.523C726.562 325.586 726.785 324.746 727.23 324.004C727.684 323.262 728.305 322.684 729.094 322.27C729.891 321.855 730.789 321.648 731.789 321.648ZM731.789 323.477C731.203 323.477 730.672 323.605 730.195 323.863C729.719 324.121 729.348 324.48 729.082 324.941C728.816 325.402 728.688 325.93 728.695 326.523C728.688 327.125 728.816 327.656 729.082 328.117C729.348 328.578 729.715 328.934 730.184 329.184C730.66 329.434 731.195 329.555 731.789 329.547C732.375 329.555 732.902 329.434 733.371 329.184C733.848 328.934 734.219 328.578 734.484 328.117C734.75 327.656 734.883 327.125 734.883 326.523C734.883 325.93 734.75 325.402 734.484 324.941C734.219 324.48 733.848 324.121 733.371 323.863C732.902 323.605 732.375 323.477 731.789 323.477ZM752.742 320.734C752.742 321.875 752.902 323.004 753.223 324.121C753.543 325.23 754.02 326.246 754.652 327.168C755.285 328.09 756.055 328.828 756.961 329.383L755.719 331.094C754.766 330.523 753.949 329.746 753.27 328.762C752.59 327.77 752.066 326.645 751.699 325.387C751.301 326.754 750.738 327.977 750.012 329.055C749.293 330.125 748.438 330.961 747.445 331.562L746.062 329.898C747.023 329.32 747.844 328.555 748.523 327.602C749.203 326.641 749.715 325.578 750.059 324.414C750.41 323.242 750.586 322.047 750.586 320.828V316.914H752.742V320.734ZM764.414 335.992H762.281V314.992H764.414V335.992ZM760.055 334.961H757.945V324.227H754.688V322.375H757.945V315.391H760.055V334.961ZM786.305 333.367H767.086V331.516H771.68V326.031C770.805 325.547 770.125 324.934 769.641 324.191C769.156 323.449 768.914 322.617 768.914 321.695C768.914 320.609 769.242 319.652 769.898 318.824C770.562 317.996 771.48 317.355 772.652 316.902C773.824 316.441 775.156 316.211 776.648 316.211C778.148 316.211 779.484 316.441 780.656 316.902C781.836 317.355 782.754 317.996 783.41 318.824C784.074 319.652 784.406 320.609 784.406 321.695C784.406 322.609 784.172 323.434 783.703 324.168C783.234 324.895 782.57 325.5 781.711 325.984V331.516H786.305V333.367ZM776.648 317.992C775.555 317.992 774.586 318.145 773.742 318.449C772.898 318.746 772.242 319.176 771.773 319.738C771.305 320.293 771.07 320.945 771.07 321.695C771.07 322.438 771.305 323.09 771.773 323.652C772.242 324.215 772.898 324.652 773.742 324.965C774.586 325.27 775.555 325.422 776.648 325.422C777.734 325.422 778.699 325.27 779.543 324.965C780.395 324.652 781.059 324.215 781.535 323.652C782.012 323.09 782.25 322.438 782.25 321.695C782.25 320.953 782.012 320.301 781.535 319.738C781.066 319.176 780.406 318.746 779.555 318.449C778.711 318.145 777.742 317.992 776.648 317.992ZM779.461 331.516V326.84C778.609 327.051 777.672 327.156 776.648 327.156C775.664 327.156 774.742 327.055 773.883 326.852V331.516H779.461Z" fill="#374151"/>
</g>
<defs>
<clipPath id="clip0_37841_12814">
<rect width="988" height="444" rx="12" fill="white"/>
</clipPath>
<clipPath id="clip1_37841_12814">
<path d="M-7 12C-7 5.37258 -1.62742 0 5 0H572V444H4.99999C-1.62743 444 -7 438.627 -7 432V12Z" fill="white"/>
</clipPath>
<clipPath id="clip2_37841_12814">
<rect width="293" height="162" fill="white" transform="translate(-166 282)"/>
</clipPath>
<clipPath id="clip3_37841_12814">
<rect width="293" height="162" fill="white" transform="translate(451 282)"/>
</clipPath>
<clipPath id="clip4_37841_12814">
<path d="M139.719 293.634C139.719 287.007 145.092 281.634 151.719 281.634H428.235V444H151.719C145.092 444 139.719 438.627 139.719 432V293.634Z" fill="white"/>
</clipPath>
</defs>
</svg>
