<svg width="988" height="444" viewBox="0 0 988 444" fill="none" xmlns="http://www.w3.org/2000/svg">
<rect width="988" height="444" rx="12" fill="#FCFCFC"/>
<g clip-path="url(#clip0_37841_12729)">
<rect x="23.5" width="588" height="444" fill="#F3F4F6"/>
<rect x="222.5" y="137" width="191" height="191" rx="39" fill="white"/>
<rect x="-44.5" y="137" width="191" height="191" rx="39" fill="white"/>
<path fill-rule="evenodd" clip-rule="evenodd" d="M279.745 158.91C278.421 167.267 267.75 173.78 254.782 173.78C241.347 173.78 230.377 166.789 229.712 158L183.898 160.743C180.866 160.925 178.5 163.437 178.5 166.475V198.696C178.5 202.219 181.644 204.911 185.126 204.369L196.291 202.629C199.996 202.051 203.25 205.122 202.89 208.854L194.41 296.645C194.091 299.946 196.627 302.83 199.942 302.935L294.17 305.943C297.411 306.047 300.095 303.448 300.095 300.205V212.473C300.095 208.828 303.448 206.105 307.016 206.854L319.579 209.491C323.147 210.239 326.5 207.517 326.5 203.872V172.654C326.5 169.901 324.547 167.536 321.844 167.016L279.745 158.91Z" fill="#4DC380"/>
<path d="M245.9 224.367C246.459 226.764 244.508 229.268 242.398 229.76C240.289 230.252 237.517 228.85 236.958 226.453C236.399 224.056 238.012 220.862 240.122 220.37C242.935 219.713 245.34 221.969 245.9 224.367Z" fill="#37B36B"/>
<path d="M256.664 224.458C255.852 226.782 257.525 229.48 259.571 230.194C261.616 230.908 264.52 229.809 265.332 227.485C266.143 225.161 264.879 221.813 262.834 221.099C260.107 220.147 257.475 222.134 256.664 224.458Z" fill="#37B36B"/>
<path d="M266.767 238.108C266.392 245.132 259.394 247.376 250.037 246.877C240.681 246.377 234.117 243.408 234.492 236.384C234.928 228.214 240.42 221.966 251.337 222.549C262.253 223.132 267.237 229.321 266.767 238.108Z" fill="#37B36B"/>
<path d="M248.496 235.021C248.388 237.059 247.008 239.227 245.246 239.133C243.484 239.039 240.727 237.226 240.889 234.183C241.042 231.323 244.171 230.471 247.32 231.163C249.25 231.587 248.605 232.984 248.496 235.021Z" fill="#269E58"/>
<path d="M245.217 234.542C245.196 234.941 245.299 235.271 245.901 235.303C246.504 235.335 246.641 235.018 246.663 234.619C246.684 234.22 246.46 233.883 245.979 233.858C245.497 233.832 245.239 234.143 245.217 234.542Z" fill="white"/>
<path d="M252.988 235.261C252.879 237.299 254.02 239.601 255.782 239.695C257.544 239.789 260.478 238.281 260.641 235.237C260.794 232.378 257.773 231.197 254.569 231.55C252.604 231.766 253.096 233.223 252.988 235.261Z" fill="#269E58"/>
<path d="M256.299 235.133C256.278 235.532 256.14 235.85 255.538 235.817C254.936 235.785 254.833 235.455 254.854 235.056C254.875 234.657 255.133 234.346 255.615 234.372C256.097 234.398 256.32 234.734 256.299 235.133Z" fill="white"/>
<path d="M408.515 137.949C408.241 129.213 400.833 122.275 391.506 122.275C388.488 122.275 383.824 124.331 381.904 127.671C381.629 128.442 380.532 128.442 380.258 127.671C378.063 124.588 373.673 122.532 370.381 122.532C361.328 122.532 353.646 129.47 353.372 137.949V138.463C353.372 142.831 355.292 146.942 358.585 150.025C358.859 150.282 372.027 161.331 378.063 166.213C379.709 167.498 382.178 167.498 383.824 166.213C389.86 161.331 402.754 150.539 403.302 150.282C403.302 150.282 403.302 150.282 403.302 150.025C406.595 147.199 408.515 143.088 408.515 138.463V137.949Z" fill="url(#paint0_linear_37841_12729)"/>
<path d="M359.264 91.0004C357.444 86.7003 352.414 84.7214 347.764 86.5842C346.26 87.1869 344.331 89.143 344.018 91.1916C344.03 91.6307 343.483 91.8498 343.197 91.5203C341.509 90.4217 338.924 90.2736 337.283 90.9311C332.77 92.7391 330.279 97.7315 331.776 102.013L331.875 102.269C332.717 104.447 334.467 106.112 336.703 106.992C336.889 107.065 345.583 109.943 349.533 111.171C350.601 111.483 351.832 110.99 352.405 110.021C354.472 106.382 358.82 98.4271 359.044 98.1894C359.044 98.1894 359.044 98.1894 358.994 98.0613C360.09 95.9949 360.255 93.5621 359.363 91.2566L359.264 91.0004Z" fill="url(#paint1_linear_37841_12729)"/>
<path d="M405.377 92.9099C407.265 88.6396 405.303 83.5269 400.814 81.2935C399.361 80.5709 396.641 80.4435 394.945 81.5913C394.635 81.8966 394.107 81.6338 394.153 81.1971C393.809 79.1876 392.172 77.1472 390.587 76.359C386.23 74.1912 380.929 75.6908 378.837 79.7062L378.719 79.9535C377.709 82.0558 377.683 84.4943 378.555 86.7666C378.628 86.956 382.412 95.4268 384.188 99.2216C384.684 100.234 385.872 100.825 386.961 100.601C390.994 99.6967 399.695 97.5901 400.018 97.5978C400.018 97.5978 400.018 97.5978 400.077 97.4742C402.315 96.9021 404.19 95.3833 405.259 93.1573L405.377 92.9099Z" fill="url(#paint2_linear_37841_12729)"/>
<rect x="489.5" y="137" width="191" height="191" rx="39" fill="white"/>
<path fill-rule="evenodd" clip-rule="evenodd" d="M279.745 158.91C278.421 167.267 267.75 173.78 254.782 173.78C241.347 173.78 230.377 166.789 229.712 158L183.898 160.743C180.866 160.925 178.5 163.437 178.5 166.475V198.696C178.5 202.219 181.644 204.911 185.126 204.369L196.291 202.629C199.996 202.051 203.25 205.122 202.89 208.854L194.41 296.645C194.091 299.946 196.627 302.83 199.942 302.935L294.17 305.944C297.411 306.047 300.095 303.448 300.095 300.205V212.473C300.095 208.828 303.448 206.105 307.016 206.854L319.579 209.491C323.147 210.24 326.5 207.517 326.5 203.872V172.654C326.5 169.902 324.547 167.536 321.844 167.016L279.745 158.91Z" fill="#4DC380"/>
<path d="M245.9 224.367C246.459 226.764 244.508 229.268 242.398 229.76C240.289 230.253 237.517 228.85 236.958 226.453C236.399 224.056 238.012 220.862 240.122 220.37C242.935 219.713 245.34 221.969 245.9 224.367Z" fill="#37B36B"/>
<path d="M256.664 224.458C255.852 226.782 257.525 229.48 259.571 230.194C261.616 230.908 264.52 229.809 265.332 227.485C266.143 225.161 264.879 221.813 262.834 221.099C260.107 220.147 257.475 222.134 256.664 224.458Z" fill="#37B36B"/>
<path d="M266.767 238.108C266.392 245.132 259.394 247.376 250.037 246.877C240.681 246.377 234.117 243.408 234.492 236.384C234.928 228.214 240.42 221.966 251.337 222.549C262.253 223.132 267.237 229.321 266.767 238.108Z" fill="#37B36B"/>
<path d="M248.496 235.021C248.388 237.059 247.008 239.227 245.246 239.133C243.484 239.039 240.727 237.226 240.889 234.183C241.042 231.323 244.171 230.471 247.32 231.163C249.25 231.587 248.605 232.984 248.496 235.021Z" fill="#269E58"/>
<path d="M245.217 234.542C245.196 234.941 245.299 235.271 245.901 235.303C246.504 235.335 246.641 235.018 246.663 234.619C246.684 234.22 246.46 233.883 245.979 233.858C245.497 233.832 245.239 234.143 245.217 234.542Z" fill="white"/>
<path d="M252.988 235.261C252.879 237.299 254.02 239.601 255.782 239.695C257.544 239.789 260.478 238.281 260.641 235.237C260.794 232.378 257.773 231.197 254.569 231.55C252.604 231.766 253.096 233.223 252.988 235.261Z" fill="#269E58"/>
<path d="M256.299 235.133C256.278 235.533 256.14 235.85 255.538 235.817C254.936 235.785 254.833 235.455 254.854 235.056C254.875 234.657 255.133 234.347 255.615 234.372C256.097 234.398 256.32 234.734 256.299 235.133Z" fill="white"/>
<path d="M408.515 137.949C408.241 129.213 400.833 122.275 391.506 122.275C388.488 122.275 383.824 124.331 381.904 127.671C381.629 128.442 380.532 128.442 380.258 127.671C378.063 124.588 373.673 122.532 370.381 122.532C361.328 122.532 353.646 129.47 353.372 137.949V138.463C353.372 142.831 355.292 146.942 358.585 150.025C358.859 150.282 372.027 161.331 378.063 166.213C379.709 167.498 382.178 167.498 383.824 166.213C389.86 161.331 402.754 150.539 403.302 150.282C403.302 150.282 403.302 150.282 403.302 150.025C406.595 147.199 408.515 143.088 408.515 138.463V137.949Z" fill="url(#paint3_linear_37841_12729)"/>
<path d="M359.264 91.0005C357.444 86.7004 352.414 84.7215 347.764 86.5843C346.26 87.187 344.331 89.1431 344.018 91.1917C344.03 91.6308 343.483 91.8499 343.197 91.5205C341.509 90.4218 338.924 90.2737 337.283 90.9312C332.77 92.7393 330.279 97.7316 331.776 102.013L331.875 102.269C332.717 104.447 334.467 106.113 336.703 106.992C336.889 107.065 345.583 109.943 349.533 111.171C350.601 111.483 351.832 110.99 352.405 110.021C354.472 106.382 358.82 98.4272 359.044 98.1895C359.044 98.1895 359.044 98.1895 358.994 98.0615C360.09 95.9951 360.255 93.5622 359.363 91.2567L359.264 91.0005Z" fill="url(#paint4_linear_37841_12729)"/>
<path d="M405.377 92.9099C407.265 88.6396 405.303 83.5269 400.814 81.2935C399.361 80.5709 396.641 80.4435 394.945 81.5913C394.635 81.8966 394.107 81.6338 394.153 81.1971C393.809 79.1876 392.172 77.1472 390.587 76.359C386.23 74.1912 380.929 75.6908 378.837 79.7062L378.719 79.9535C377.709 82.0558 377.683 84.4943 378.555 86.7666C378.628 86.956 382.412 95.4268 384.188 99.2216C384.684 100.234 385.872 100.825 386.961 100.601C390.994 99.6967 399.695 97.5901 400.018 97.5978C400.018 97.5978 400.018 97.5978 400.077 97.4742C402.315 96.9021 404.19 95.3833 405.259 93.1573L405.377 92.9099Z" fill="url(#paint5_linear_37841_12729)"/>
<path d="M183.164 346.402C187.476 361.252 176.075 377.615 163.007 381.409C149.94 385.203 132.086 377.334 127.775 362.484C123.463 347.634 132.514 327.059 145.582 323.265C163.007 318.205 178.853 331.552 183.164 346.402Z" fill="#222327"/>
<path d="M190.348 346.402C186.036 361.252 197.436 377.615 210.504 381.409C223.572 385.204 241.425 377.334 245.737 362.484C250.049 347.634 240.997 327.059 227.929 323.265C210.504 318.205 194.659 331.552 190.348 346.402Z" fill="#222327"/>
<path d="M281.5 460.385C281.5 500.2 241.122 515 186.043 515C130.965 515 91.5 500.2 91.5 460.385C91.5 414.071 130.965 373 186.043 373C241.122 373 281.5 410.576 281.5 460.385Z" fill="white"/>
<path fill-rule="evenodd" clip-rule="evenodd" d="M186.414 526.134C253.942 526.134 303.448 507.166 303.448 456.138C303.448 392.301 253.942 344.144 186.414 344.144C118.885 344.144 70.5 396.781 70.5 456.138C70.5 507.166 118.885 526.134 186.414 526.134ZM183.762 506.535C233.435 506.535 269.85 492.645 269.85 455.276C269.85 408.528 233.435 373.262 183.762 373.262C134.09 373.262 98.4986 411.809 98.4986 455.276C98.4986 492.645 134.09 506.535 183.762 506.535Z" fill="white"/>
<path d="M431.164 346.402C435.476 361.252 424.075 377.615 411.007 381.409C397.94 385.203 380.086 377.334 375.775 362.484C371.463 347.634 380.514 327.059 393.582 323.265C411.007 318.205 426.853 331.552 431.164 346.402Z" fill="#222327"/>
<path d="M438.348 346.402C434.036 361.252 445.436 377.615 458.504 381.409C471.572 385.204 489.425 377.334 493.737 362.484C498.049 347.634 488.997 327.059 475.929 323.265C458.504 318.205 442.659 331.552 438.348 346.402Z" fill="#222327"/>
<path d="M529.5 460.385C529.5 500.2 489.122 515 434.043 515C378.965 515 339.5 500.2 339.5 460.385C339.5 414.071 378.965 373 434.043 373C489.122 373 529.5 410.576 529.5 460.385Z" fill="white"/>
<path fill-rule="evenodd" clip-rule="evenodd" d="M434.414 526.134C501.942 526.134 551.448 507.166 551.448 456.138C551.448 392.301 501.942 344.144 434.414 344.144C366.885 344.144 318.5 396.781 318.5 456.138C318.5 507.166 366.885 526.134 434.414 526.134ZM431.762 506.535C481.435 506.535 517.85 492.645 517.85 455.276C517.85 408.528 481.435 373.262 431.762 373.262C382.09 373.262 346.499 411.809 346.499 455.276C346.499 492.645 382.09 506.535 431.762 506.535Z" fill="white"/>
</g>
<path d="M667.572 109.273H670.209V114.547H675.729V109.273H678.383V122H675.729V116.727H670.209V122H667.572V109.273ZM684.764 122.193C683.814 122.193 682.988 121.988 682.285 121.578C681.582 121.168 681.04 120.591 680.659 119.847C680.278 119.097 680.088 118.232 680.088 117.254C680.088 116.275 680.275 115.414 680.65 114.67C681.031 113.926 681.573 113.352 682.276 112.947C682.985 112.537 683.814 112.332 684.764 112.332C685.713 112.332 686.542 112.537 687.251 112.947C687.96 113.352 688.505 113.926 688.886 114.67C689.267 115.414 689.457 116.275 689.457 117.254C689.457 118.232 689.267 119.097 688.886 119.847C688.505 120.591 687.96 121.168 687.251 121.578C686.542 121.988 685.713 122.193 684.764 122.193ZM684.781 120.172C685.215 120.172 685.584 120.049 685.889 119.803C686.193 119.551 686.422 119.205 686.574 118.766C686.727 118.326 686.803 117.822 686.803 117.254C686.803 116.686 686.727 116.182 686.574 115.742C686.422 115.297 686.193 114.948 685.889 114.696C685.584 114.444 685.215 114.318 684.781 114.318C684.342 114.318 683.967 114.444 683.656 114.696C683.352 114.948 683.12 115.297 682.962 115.742C682.804 116.182 682.725 116.686 682.725 117.254C682.725 117.816 682.804 118.32 682.962 118.766C683.12 119.205 683.352 119.551 683.656 119.803C683.967 120.049 684.342 120.172 684.781 120.172ZM696.119 114.406H694.326V119.064C694.326 119.416 694.402 119.662 694.555 119.803C694.707 119.943 694.93 120.02 695.223 120.031C695.598 120.031 695.943 120.014 696.26 119.979V122.035C695.949 122.094 695.486 122.123 694.871 122.123C693.893 122.123 693.122 121.897 692.56 121.446C691.997 120.995 691.719 120.324 691.725 119.434V114.406H690.406V112.455H691.725V110.17H694.326V112.455H696.119V114.406ZM701.902 112.455H704.504V122H701.902V112.455ZM703.203 111.207C702.945 111.207 702.705 111.148 702.482 111.031C702.266 110.908 702.093 110.747 701.964 110.548C701.841 110.343 701.779 110.123 701.779 109.889C701.779 109.648 701.841 109.426 701.964 109.221C702.093 109.016 702.266 108.854 702.482 108.737C702.705 108.614 702.945 108.553 703.203 108.553C703.455 108.553 703.689 108.614 703.906 108.737C704.123 108.854 704.293 109.016 704.416 109.221C704.545 109.426 704.609 109.648 704.609 109.889C704.609 110.123 704.545 110.343 704.416 110.548C704.293 110.747 704.123 110.908 703.906 111.031C703.689 111.148 703.455 111.207 703.203 111.207ZM711.553 114.406H709.76V119.064C709.76 119.416 709.836 119.662 709.988 119.803C710.141 119.943 710.363 120.02 710.656 120.031C711.031 120.031 711.377 120.014 711.693 119.979V122.035C711.383 122.094 710.92 122.123 710.305 122.123C709.326 122.123 708.556 121.897 707.993 121.446C707.431 120.995 707.152 120.324 707.158 119.434V114.406H705.84V112.455H707.158V110.17H709.76V112.455H711.553V114.406ZM717.406 122.193C716.439 122.193 715.602 121.994 714.893 121.596C714.189 121.197 713.647 120.629 713.267 119.891C712.886 119.146 712.695 118.273 712.695 117.271C712.695 116.293 712.883 115.432 713.258 114.688C713.639 113.938 714.178 113.357 714.875 112.947C715.572 112.537 716.381 112.332 717.301 112.332C718.156 112.332 718.921 112.514 719.595 112.877C720.274 113.234 720.808 113.776 721.194 114.503C721.587 115.229 721.783 116.117 721.783 117.166V117.904H715.262C715.262 118.379 715.35 118.792 715.525 119.144C715.707 119.495 715.962 119.768 716.29 119.961C716.624 120.148 717.014 120.242 717.459 120.242C717.887 120.242 718.256 120.157 718.566 119.987C718.877 119.812 719.1 119.574 719.234 119.275H721.713C721.59 119.861 721.338 120.374 720.957 120.813C720.576 121.253 720.081 121.593 719.472 121.833C718.868 122.073 718.18 122.193 717.406 122.193ZM719.322 116.27C719.322 115.889 719.237 115.549 719.067 115.25C718.903 114.945 718.672 114.708 718.373 114.538C718.074 114.368 717.734 114.283 717.354 114.283C716.967 114.283 716.615 114.371 716.299 114.547C715.988 114.723 715.739 114.963 715.552 115.268C715.37 115.572 715.273 115.906 715.262 116.27H719.322ZM723.418 112.455H725.896V114.125H726.002C726.207 113.568 726.541 113.132 727.004 112.815C727.467 112.493 728.018 112.332 728.656 112.332C729.312 112.332 729.869 112.493 730.326 112.815C730.789 113.132 731.1 113.568 731.258 114.125H731.346C731.551 113.574 731.908 113.138 732.418 112.815C732.928 112.493 733.531 112.332 734.229 112.332C734.82 112.332 735.342 112.461 735.793 112.719C736.25 112.971 736.604 113.343 736.856 113.835C737.108 114.321 737.234 114.904 737.234 115.584V122H734.633V116.094C734.633 115.566 734.495 115.165 734.22 114.89C733.95 114.614 733.59 114.477 733.139 114.477C732.652 114.477 732.271 114.632 731.996 114.942C731.727 115.247 731.592 115.654 731.592 116.164V122H729.061V116.023C729.061 115.555 728.926 115.18 728.656 114.898C728.387 114.617 728.029 114.477 727.584 114.477C727.291 114.477 727.024 114.553 726.784 114.705C726.55 114.852 726.362 115.06 726.222 115.329C726.087 115.599 726.02 115.912 726.02 116.27V122H723.418V112.455Z" fill="#3692FF"/>
<path d="M697.32 176.633H692.32V151.086H697.32V176.633ZM698.258 185.969H673.492V174.055H678.531V181.984H698.258V185.969ZM677.828 153.352C679.638 153.352 681.279 153.736 682.75 154.504C684.234 155.272 685.406 156.34 686.266 157.707C687.125 159.061 687.555 160.591 687.555 162.297C687.555 164.029 687.125 165.585 686.266 166.965C685.419 168.332 684.254 169.4 682.77 170.168C681.285 170.936 679.638 171.32 677.828 171.32C676.018 171.32 674.371 170.936 672.887 170.168C671.402 169.4 670.23 168.332 669.371 166.965C668.525 165.585 668.102 164.029 668.102 162.297C668.102 160.591 668.531 159.061 669.391 157.707C670.25 156.34 671.415 155.272 672.887 154.504C674.371 153.736 676.018 153.352 677.828 153.352ZM677.828 157.688C676.904 157.674 676.07 157.857 675.328 158.234C674.586 158.599 674.007 159.133 673.59 159.836C673.173 160.539 672.971 161.359 672.984 162.297C672.971 163.26 673.173 164.1 673.59 164.816C674.007 165.52 674.579 166.06 675.309 166.438C676.051 166.802 676.891 166.984 677.828 166.984C678.74 166.984 679.553 166.802 680.27 166.438C680.999 166.06 681.572 165.52 681.988 164.816C682.418 164.1 682.633 163.26 682.633 162.297C682.633 161.359 682.418 160.539 681.988 159.836C681.572 159.133 680.999 158.599 680.27 158.234C679.54 157.857 678.727 157.674 677.828 157.688ZM732.808 186.594H727.769V151.047H732.808V186.594ZM722.144 154.758C722.144 158.56 721.629 162.017 720.601 165.129C719.585 168.241 717.866 171.099 715.445 173.703C713.023 176.294 709.761 178.56 705.659 180.5L703.042 176.516C706.076 175.083 708.576 173.488 710.542 171.73C712.521 169.973 714.032 168.026 715.073 165.891C716.128 163.742 716.792 161.333 717.066 158.664H704.956V154.758H722.144ZM761.283 156.633C761.283 158.104 761.576 159.51 762.162 160.852C762.748 162.18 763.646 163.371 764.857 164.426C766.081 165.467 767.598 166.268 769.408 166.828L766.752 170.695C764.903 170.083 763.314 169.198 761.986 168.039C760.658 166.88 759.603 165.507 758.822 163.918C758.028 165.754 756.927 167.342 755.521 168.684C754.128 170.012 752.442 171.008 750.463 171.672L747.767 167.766C749.681 167.128 751.27 166.216 752.533 165.031C753.796 163.846 754.733 162.499 755.345 160.988C755.957 159.465 756.27 157.857 756.283 156.164V152.922H761.283V156.633ZM776.517 159.367H781.322V163.508H776.517V172.141H771.517V151.047H776.517V159.367ZM764.877 172.844C767.324 172.844 769.447 173.117 771.244 173.664C773.041 174.211 774.427 174.999 775.404 176.027C776.38 177.056 776.869 178.286 776.869 179.719C776.869 181.164 776.38 182.401 775.404 183.43C774.44 184.458 773.054 185.24 771.244 185.773C769.447 186.32 767.324 186.594 764.877 186.594C762.377 186.594 760.209 186.32 758.373 185.773C756.55 185.24 755.143 184.458 754.154 183.43C753.177 182.401 752.689 181.164 752.689 179.719C752.689 178.286 753.177 177.056 754.154 176.027C755.143 174.999 756.556 174.211 758.392 173.664C760.228 173.117 762.39 172.844 764.877 172.844ZM764.877 176.75C762.52 176.75 760.729 177.004 759.505 177.512C758.282 178.007 757.676 178.742 757.689 179.719C757.65 181.698 760.046 182.688 764.877 182.688C769.59 182.688 771.947 181.698 771.947 179.719C771.947 178.742 771.341 178.007 770.13 177.512C768.933 177.004 767.181 176.75 764.877 176.75ZM816.106 171.633H802.356V174.68H812.239V186.203H787.434V174.68H797.395V171.633H783.684V167.688H816.106V171.633ZM813.216 156.008H808.567V161.438H812.981V165.422H786.77V161.438H791.145V156.008H786.536V152.023H813.216V156.008ZM792.356 182.219H807.356V178.547H792.356V182.219ZM803.567 161.438V156.008H796.145V161.438H803.567ZM835.266 151.555C837.987 151.555 840.311 151.789 842.238 152.258C844.165 152.727 845.637 153.417 846.652 154.328C847.668 155.227 848.182 156.32 848.195 157.609C848.182 158.911 847.668 160.018 846.652 160.93C845.637 161.841 844.165 162.531 842.238 163C840.311 163.469 837.987 163.703 835.266 163.703C832.531 163.703 830.194 163.469 828.254 163C826.314 162.531 824.836 161.841 823.82 160.93C822.805 160.018 822.297 158.911 822.297 157.609C822.297 156.32 822.805 155.227 823.82 154.328C824.836 153.417 826.314 152.727 828.254 152.258C830.194 151.789 832.531 151.555 835.266 151.555ZM835.266 155.188C832.674 155.188 830.728 155.396 829.426 155.812C828.137 156.216 827.505 156.815 827.531 157.609C827.518 158.469 828.137 159.087 829.387 159.465C830.637 159.842 832.596 160.031 835.266 160.031C837.948 160.031 839.914 159.842 841.164 159.465C842.414 159.087 843.039 158.469 843.039 157.609C843.039 156.815 842.395 156.216 841.105 155.812C839.816 155.396 837.87 155.188 835.266 155.188ZM851.477 169.328H819.055V165.383H851.477V169.328ZM847.531 180.461H827.727V182.609H848.469V186.359H822.844V176.984H842.609V175.031H822.805V171.398H847.531V180.461ZM695.992 217.242H700.523V221.344H695.992V231.227H690.992V207.086H695.992V217.242ZM667.164 226.656C670.875 226.656 673.753 226.63 675.797 226.578V224.586C673.844 224.312 672.307 223.727 671.188 222.828C670.081 221.917 669.534 220.784 669.547 219.43C669.534 218.349 669.885 217.411 670.602 216.617C671.318 215.81 672.333 215.191 673.648 214.762C674.977 214.332 676.513 214.117 678.258 214.117C679.99 214.117 681.507 214.332 682.809 214.762C684.124 215.191 685.139 215.81 685.855 216.617C686.585 217.411 686.956 218.349 686.969 219.43C686.956 220.784 686.396 221.91 685.289 222.809C684.195 223.707 682.685 224.293 680.758 224.566V226.402C683.844 226.259 686.708 226.018 689.352 225.68L689.703 229.117C686.383 229.703 682.945 230.087 679.391 230.27C675.836 230.439 671.93 230.523 667.672 230.523L667.164 226.656ZM695.992 242.594H690.992V236.5H671.695V232.672H695.992V242.594ZM688.453 213.297H668.102V209.664H675.797V206.773H680.758V209.664H688.453V213.297ZM678.258 217.438C676.956 217.438 675.966 217.6 675.289 217.926C674.625 218.251 674.299 218.753 674.312 219.43C674.299 220.068 674.632 220.569 675.309 220.934C675.999 221.285 676.982 221.461 678.258 221.461C679.508 221.461 680.471 221.285 681.148 220.934C681.826 220.582 682.177 220.081 682.203 219.43C682.164 218.102 680.849 217.438 678.258 217.438ZM732.691 232.633H727.691V207.086H732.691V232.633ZM733.628 241.969H708.862V230.055H713.902V237.984H733.628V241.969ZM713.198 209.352C715.008 209.352 716.649 209.736 718.12 210.504C719.605 211.272 720.777 212.34 721.636 213.707C722.495 215.061 722.925 216.591 722.925 218.297C722.925 220.029 722.495 221.585 721.636 222.965C720.79 224.332 719.624 225.4 718.14 226.168C716.655 226.936 715.008 227.32 713.198 227.32C711.389 227.32 709.741 226.936 708.257 226.168C706.773 225.4 705.601 224.332 704.741 222.965C703.895 221.585 703.472 220.029 703.472 218.297C703.472 216.591 703.902 215.061 704.761 213.707C705.62 212.34 706.786 211.272 708.257 210.504C709.741 209.736 711.389 209.352 713.198 209.352ZM713.198 213.688C712.274 213.674 711.441 213.857 710.698 214.234C709.956 214.599 709.377 215.133 708.96 215.836C708.543 216.539 708.342 217.359 708.355 218.297C708.342 219.26 708.543 220.1 708.96 220.816C709.377 221.52 709.95 222.06 710.679 222.438C711.421 222.802 712.261 222.984 713.198 222.984C714.11 222.984 714.924 222.802 715.64 222.438C716.369 222.06 716.942 221.52 717.359 220.816C717.788 220.1 718.003 219.26 718.003 218.297C718.003 217.359 717.788 216.539 717.359 215.836C716.942 215.133 716.369 214.599 715.64 214.234C714.911 213.857 714.097 213.674 713.198 213.688ZM755.444 216.422H738.256V212.477H744.428V208.023H749.35V212.477H755.444V216.422ZM746.928 218.023C748.426 218.023 749.76 218.388 750.932 219.117C752.117 219.833 753.041 220.829 753.705 222.105C754.383 223.382 754.728 224.833 754.741 226.461C754.728 228.089 754.383 229.547 753.705 230.836C753.041 232.125 752.117 233.134 750.932 233.863C749.76 234.579 748.426 234.938 746.928 234.938C745.431 234.938 744.083 234.579 742.885 233.863C741.7 233.134 740.769 232.125 740.092 230.836C739.415 229.547 739.077 228.089 739.077 226.461C739.077 224.846 739.415 223.401 740.092 222.125C740.769 220.836 741.7 219.833 742.885 219.117C744.083 218.388 745.431 218.023 746.928 218.023ZM746.928 222.164C745.873 222.164 745.027 222.548 744.389 223.316C743.764 224.085 743.452 225.133 743.452 226.461C743.452 227.789 743.764 228.831 744.389 229.586C745.027 230.341 745.873 230.719 746.928 230.719C747.944 230.719 748.764 230.341 749.389 229.586C750.027 228.831 750.353 227.789 750.366 226.461C750.353 225.133 750.027 224.085 749.389 223.316C748.764 222.548 747.944 222.164 746.928 222.164ZM769.037 242.594H764.311V225.484H761.42V241.07H756.772V207.75H761.42V221.5H764.311V207.047H769.037V242.594ZM816.223 238.453H783.684V234.391H797.395V227.828H787.122V209.312H792.122V214.82H807.63V209.312H812.591V227.828H802.356V234.391H816.223V238.453ZM807.63 223.844V218.805H792.122V223.844H807.63ZM830.461 215.992C830.461 219.169 830.969 222.066 831.984 224.684C833 227.301 834.641 229.339 836.906 230.797L834.211 234.664C831.346 232.932 829.296 230.087 828.059 226.129C827.395 228.212 826.516 230.055 825.422 231.656C824.328 233.245 823 234.508 821.438 235.445L818.391 231.773C820.878 230.224 822.701 228.069 823.859 225.309C825.031 222.535 825.617 219.508 825.617 216.227V210.094H830.461V215.992ZM849.875 242.594H845.109V207.047H849.875V242.594ZM842.414 240.953H837.766V223.102H833.156V219.039H837.766V207.555H842.414V240.953ZM886.964 238.453H854.425V234.352H861.691V225.66C860.284 224.814 859.197 223.772 858.429 222.535C857.661 221.285 857.277 219.885 857.277 218.336C857.277 216.448 857.849 214.781 858.995 213.336C860.141 211.891 861.723 210.771 863.741 209.977C865.773 209.169 868.071 208.766 870.636 208.766C873.188 208.766 875.473 209.169 877.491 209.977C879.523 210.771 881.118 211.891 882.277 213.336C883.435 214.781 884.021 216.448 884.034 218.336C884.021 219.846 883.637 221.22 882.882 222.457C882.14 223.681 881.092 224.716 879.738 225.562V234.352H886.964V238.453ZM870.636 212.711C868.943 212.711 867.459 212.932 866.183 213.375C864.92 213.818 863.937 214.462 863.234 215.309C862.543 216.142 862.198 217.151 862.198 218.336C862.198 219.482 862.543 220.478 863.234 221.324C863.937 222.171 864.926 222.822 866.202 223.277C867.478 223.733 868.956 223.961 870.636 223.961C872.303 223.961 873.774 223.733 875.05 223.277C876.326 222.822 877.316 222.171 878.019 221.324C878.735 220.478 879.099 219.482 879.113 218.336C879.099 217.164 878.741 216.155 878.038 215.309C877.335 214.462 876.346 213.818 875.07 213.375C873.793 212.932 872.316 212.711 870.636 212.711ZM874.698 234.352V227.457C873.357 227.704 872.003 227.828 870.636 227.828C869.178 227.828 867.836 227.704 866.613 227.457V234.352H874.698Z" fill="#374151"/>
<path d="M683.633 291.359H686.891V293.211H683.633V303.969H681.406V282.992H683.633V291.359ZM678.148 285.195C678.133 288.398 677.355 291.273 675.816 293.82C674.277 296.367 671.852 298.461 668.539 300.102L667.297 298.367C669.922 297.055 671.949 295.453 673.379 293.562C674.816 291.672 675.648 289.5 675.875 287.047H668.352V285.195H678.148ZM695.352 286.859C695.352 287.75 695.551 288.602 695.949 289.414C696.348 290.219 696.926 290.934 697.684 291.559C698.441 292.176 699.344 292.648 700.391 292.977L699.336 294.711C698.156 294.336 697.133 293.773 696.266 293.023C695.406 292.273 694.742 291.391 694.273 290.375C693.812 291.539 693.129 292.555 692.223 293.422C691.316 294.281 690.242 294.93 689 295.367L687.852 293.586C688.922 293.234 689.852 292.719 690.641 292.039C691.438 291.352 692.047 290.562 692.469 289.672C692.898 288.781 693.117 287.852 693.125 286.883V286.297H688.508V284.492H699.875V286.297H695.352V286.859ZM704.516 288.195H707.562V290.023H704.516V295.602H702.289V282.992H704.516V288.195ZM697.742 296.117C699.18 296.117 700.422 296.273 701.469 296.586C702.516 296.891 703.316 297.336 703.871 297.922C704.426 298.5 704.703 299.195 704.703 300.008C704.703 300.828 704.422 301.535 703.859 302.129C703.305 302.723 702.504 303.176 701.457 303.488C700.418 303.801 699.18 303.953 697.742 303.945C696.289 303.953 695.031 303.801 693.969 303.488C692.914 303.176 692.102 302.723 691.531 302.129C690.969 301.535 690.688 300.828 690.688 300.008C690.688 299.195 690.969 298.5 691.531 297.922C692.102 297.336 692.914 296.891 693.969 296.586C695.031 296.273 696.289 296.117 697.742 296.117ZM697.742 297.875C696.211 297.875 695.02 298.062 694.168 298.438C693.324 298.805 692.906 299.328 692.914 300.008C692.906 300.703 693.324 301.242 694.168 301.625C695.02 302 696.211 302.188 697.742 302.188C699.258 302.188 700.434 302 701.27 301.625C702.105 301.25 702.523 300.711 702.523 300.008C702.523 299.328 702.105 298.805 701.27 298.438C700.434 298.062 699.258 297.875 697.742 297.875ZM715.578 285.031H718.156V292.391H726.594V285.031H729.172V302H726.594V294.594H718.156V302H715.578V285.031ZM747.383 293.516C747.383 295.281 747.055 296.824 746.398 298.145C745.742 299.457 744.832 300.469 743.668 301.18C742.512 301.883 741.203 302.234 739.742 302.234C738.266 302.234 736.945 301.883 735.781 301.18C734.625 300.469 733.719 299.457 733.062 298.145C732.406 296.824 732.078 295.281 732.078 293.516C732.078 291.742 732.406 290.199 733.062 288.887C733.719 287.566 734.625 286.555 735.781 285.852C736.945 285.148 738.266 284.797 739.742 284.797C741.203 284.797 742.512 285.148 743.668 285.852C744.832 286.555 745.742 287.566 746.398 288.887C747.055 290.199 747.383 291.742 747.383 293.516ZM744.828 293.516C744.828 292.172 744.609 291.023 744.172 290.07C743.734 289.117 743.129 288.395 742.355 287.902C741.59 287.41 740.719 287.164 739.742 287.164C738.758 287.164 737.879 287.41 737.105 287.902C736.332 288.395 735.727 289.117 735.289 290.07C734.852 291.023 734.633 292.172 734.633 293.516C734.633 294.859 734.852 296.008 735.289 296.961C735.727 297.914 736.332 298.637 737.105 299.129C737.879 299.621 738.758 299.867 739.742 299.867C740.719 299.867 741.59 299.621 742.355 299.129C743.129 298.637 743.734 297.914 744.172 296.961C744.609 296 744.828 294.852 744.828 293.516ZM748.719 285.031H761.867V287.258H756.594V302H754.016V287.258H748.719V285.031ZM780.031 289.766H783.078V291.617H780.031V298.719H777.805V283.016H780.031V289.766ZM776.07 287.258H763.555V285.453H768.711V282.992H770.938V285.453H776.07V287.258ZM769.812 288.266C770.812 288.266 771.695 288.43 772.461 288.758C773.234 289.086 773.832 289.551 774.254 290.152C774.684 290.746 774.898 291.438 774.898 292.227C774.898 293.016 774.684 293.707 774.254 294.301C773.832 294.895 773.234 295.355 772.461 295.684C771.695 296.004 770.812 296.164 769.812 296.164C768.805 296.164 767.914 296.004 767.141 295.684C766.367 295.355 765.766 294.895 765.336 294.301C764.914 293.707 764.703 293.016 764.703 292.227C764.703 291.438 764.914 290.746 765.336 290.152C765.766 289.551 766.367 289.086 767.141 288.758C767.914 288.43 768.805 288.266 769.812 288.266ZM769.812 289.977C769.219 289.977 768.695 290.07 768.242 290.258C767.797 290.438 767.453 290.699 767.211 291.043C766.969 291.379 766.852 291.773 766.859 292.227C766.852 292.672 766.969 293.062 767.211 293.398C767.453 293.727 767.797 293.98 768.242 294.16C768.695 294.34 769.219 294.43 769.812 294.43C770.406 294.43 770.926 294.34 771.371 294.16C771.824 293.98 772.176 293.727 772.426 293.398C772.676 293.062 772.805 292.672 772.812 292.227C772.805 291.773 772.676 291.379 772.426 291.043C772.176 290.699 771.824 290.438 771.371 290.258C770.926 290.07 770.406 289.977 769.812 289.977ZM780.922 303.547H766.719V297.477H768.945V301.742H780.922V303.547ZM809.281 294.523H800.797V296.539C802.742 296.648 804.25 297.023 805.32 297.664C806.398 298.297 806.938 299.156 806.938 300.242C806.938 301.031 806.648 301.703 806.07 302.258C805.492 302.82 804.66 303.242 803.574 303.523C802.496 303.812 801.203 303.953 799.695 303.945C798.172 303.953 796.863 303.812 795.77 303.523C794.684 303.242 793.852 302.82 793.273 302.258C792.695 301.703 792.406 301.031 792.406 300.242C792.406 299.156 792.945 298.297 794.023 297.664C795.102 297.023 796.625 296.648 798.594 296.539V294.523H790.133V292.719H809.281V294.523ZM799.695 298.227C798.086 298.227 796.844 298.402 795.969 298.754C795.094 299.105 794.656 299.602 794.656 300.242C794.656 300.875 795.098 301.367 795.98 301.719C796.863 302.07 798.102 302.242 799.695 302.234C800.742 302.242 801.641 302.168 802.391 302.012C803.148 301.855 803.723 301.629 804.113 301.332C804.512 301.027 804.711 300.664 804.711 300.242C804.711 299.602 804.27 299.105 803.387 298.754C802.512 298.402 801.281 298.227 799.695 298.227ZM807.57 285.734H801.195C801.297 286.398 801.668 287.023 802.309 287.609C802.957 288.195 803.801 288.688 804.84 289.086C805.887 289.477 807.039 289.734 808.297 289.859L807.5 291.617C806.289 291.477 805.16 291.219 804.113 290.844C803.074 290.461 802.172 289.98 801.406 289.402C800.648 288.824 800.082 288.168 799.707 287.434C799.324 288.168 798.75 288.824 797.984 289.402C797.227 289.98 796.328 290.461 795.289 290.844C794.25 291.219 793.125 291.477 791.914 291.617L791.141 289.859C792.383 289.734 793.52 289.477 794.551 289.086C795.59 288.688 796.43 288.195 797.07 287.609C797.719 287.023 798.094 286.398 798.195 285.734H791.891V283.953H807.57V285.734ZM827.867 287.07C827.867 288.25 827.852 289.277 827.82 290.152C827.797 291.02 827.727 292.023 827.609 293.164C827.5 294.305 827.32 295.539 827.07 296.867L824.82 296.633C825.07 295.375 825.254 294.191 825.371 293.082C825.496 291.965 825.57 290.973 825.594 290.105C825.625 289.238 825.641 288.227 825.641 287.07V286.812H812.891V285.008H827.867V287.07ZM830.023 301.156H810.875V299.305H818.164V291.898H820.367V299.305H830.023V301.156ZM849.102 303.992H846.898V293.141H842.188V291.312H846.898V282.992H849.102V303.992ZM842.258 285.242C842.242 288.492 841.5 291.359 840.031 293.844C838.562 296.328 836.133 298.414 832.742 300.102L831.57 298.344C834.289 297.016 836.324 295.418 837.676 293.551C839.027 291.676 839.801 289.5 839.996 287.023H832.508V285.242H842.258ZM860.938 292.789H855.172V297.219C856.422 297.211 857.598 297.172 858.699 297.102C859.809 297.023 860.953 296.891 862.133 296.703L862.32 298.484C860.984 298.719 859.727 298.875 858.547 298.953C857.367 299.031 856 299.078 854.445 299.094H853.016V290.961H858.781V287.023H852.992V285.195H860.938V292.789ZM870.383 303.992H868.25V292.977H865.531V302.914H863.492V283.414H865.531V291.172H868.25V282.992H870.383V303.992ZM898.109 293.469H889.625V295.297H895.695V300.219H883.461V302.07H896.281V303.781H881.281V298.602H893.492V297.008H881.258V295.297H887.398V293.469H878.961V291.688H898.109V293.469ZM895.648 290.141H881.422V283.672H895.648V290.141ZM883.602 288.383H893.422V285.43H883.602V288.383ZM918.852 294.828H910.367V297.078H916.508V303.734H902V297.078H908.164V294.828H899.703V293.047H918.852V294.828ZM917.047 285.453H914V289.461H916.953V291.266H901.555V289.461H904.531V285.453H901.461V283.648H917.047V285.453ZM904.203 301.93H914.352V298.836H904.203V301.93ZM911.773 289.461V285.453H906.734V289.461H911.773ZM930.008 283.344C931.586 283.344 932.934 283.484 934.051 283.766C935.176 284.039 936.031 284.445 936.617 284.984C937.211 285.523 937.508 286.18 937.508 286.953C937.508 287.727 937.211 288.387 936.617 288.934C936.031 289.473 935.176 289.883 934.051 290.164C932.934 290.445 931.586 290.586 930.008 290.586C928.43 290.586 927.078 290.445 925.953 290.164C924.836 289.883 923.98 289.473 923.387 288.934C922.801 288.387 922.508 287.727 922.508 286.953C922.508 286.18 922.801 285.523 923.387 284.984C923.98 284.445 924.836 284.039 925.953 283.766C927.078 283.484 928.43 283.344 930.008 283.344ZM930.008 284.984C928.336 284.984 927.051 285.156 926.152 285.5C925.254 285.844 924.812 286.328 924.828 286.953C924.82 287.594 925.258 288.082 926.141 288.418C927.031 288.754 928.32 288.922 930.008 288.922C931.688 288.922 932.973 288.754 933.863 288.418C934.762 288.082 935.211 287.594 935.211 286.953C935.211 286.328 934.758 285.844 933.852 285.5C932.953 285.156 931.672 284.984 930.008 284.984ZM939.594 293.656H920.445V291.875H939.594V293.656ZM937.18 300.195H924.945V302.07H937.766V303.781H922.766V298.578H934.977V296.938H922.742V295.273H937.18V300.195ZM679.203 318.695H677.211V325.281C678.219 325.195 679.188 325.102 680.117 325L680.258 326.664C678.359 326.969 676.336 327.176 674.188 327.285C672.047 327.387 669.828 327.438 667.531 327.438L667.273 325.609C667.789 325.609 668.648 325.602 669.852 325.586V318.695H667.859V316.891H679.203V318.695ZM683.773 321.227H686.82V323.102H683.773V330.461H681.547V315.016H683.773V321.227ZM684.664 335.547H670.461V328.984H672.688V333.742H684.664V335.547ZM672.008 325.527C673.117 325.504 674.125 325.465 675.031 325.41V318.695H672.008V325.527ZM704.375 323.125H707.75V324.953H704.375V336.039H702.148V314.992H704.375V323.125ZM698.727 318.812H691.133V328.961C692.992 328.953 694.625 328.898 696.031 328.797C697.445 328.695 698.867 328.516 700.297 328.258L700.578 330.133C699.133 330.391 697.711 330.57 696.312 330.672C694.922 330.766 693.312 330.812 691.484 330.812H690.594H688.906V317.008H698.727V318.812ZM725.234 330.719H715.414V317.078H725.234V330.719ZM717.594 328.914H723.031V318.836H717.594V328.914ZM730.977 323.219H734.352V325.094H730.977V335.992H728.75V314.992H730.977V323.219ZM753.336 329.195H751.227V315.016H753.336V329.195ZM749.117 327.32H747.008V322.844H743.328C742.039 325.305 739.773 327.234 736.531 328.633L735.453 327.016C738.234 325.852 740.195 324.289 741.336 322.328L735.828 322.914L735.5 321.086L742.062 320.711C742.297 320.008 742.449 319.273 742.52 318.508H736.461V316.703H744.688C744.688 318.305 744.484 319.75 744.078 321.039H747.008V315.367H749.117V327.32ZM747.289 328.586C747.289 329.453 747.605 330.277 748.238 331.059C748.871 331.84 749.73 332.504 750.816 333.051C751.902 333.598 753.102 333.969 754.414 334.164L753.547 335.898C751.906 335.625 750.434 335.102 749.129 334.328C747.824 333.562 746.848 332.625 746.199 331.516C745.551 332.625 744.574 333.562 743.27 334.328C741.965 335.102 740.492 335.625 738.852 335.898L737.961 334.164C739.273 333.969 740.473 333.598 741.559 333.051C742.645 332.504 743.504 331.84 744.137 331.059C744.77 330.277 745.086 329.453 745.086 328.586V327.977H747.289V328.586ZM774.172 335.992H772.039V314.992H774.172V335.992ZM769.906 334.961H767.773V324.836H765.406C765.344 326.195 765.117 327.375 764.727 328.375C764.336 329.375 763.809 330.145 763.145 330.684C762.48 331.215 761.719 331.477 760.859 331.469C759.953 331.477 759.156 331.18 758.469 330.578C757.789 329.977 757.262 329.117 756.887 328C756.52 326.875 756.336 325.562 756.336 324.062C756.336 322.562 756.52 321.254 756.887 320.137C757.262 319.02 757.789 318.164 758.469 317.57C759.156 316.969 759.953 316.672 760.859 316.68C761.703 316.672 762.453 316.926 763.109 317.441C763.766 317.949 764.289 318.684 764.68 319.645C765.078 320.598 765.316 321.727 765.395 323.031H767.773V315.391H769.906V334.961ZM760.859 318.766C760.352 318.766 759.914 318.977 759.547 319.398C759.18 319.812 758.895 320.418 758.691 321.215C758.496 322.004 758.398 322.953 758.398 324.062C758.398 325.172 758.496 326.125 758.691 326.922C758.895 327.711 759.18 328.316 759.547 328.738C759.914 329.152 760.352 329.359 760.859 329.359C761.375 329.359 761.82 329.152 762.195 328.738C762.57 328.316 762.859 327.711 763.062 326.922C763.266 326.125 763.367 325.172 763.367 324.062C763.367 322.953 763.266 322.004 763.062 321.215C762.859 320.418 762.57 319.812 762.195 319.398C761.82 318.977 761.375 318.766 760.859 318.766ZM784.414 320.336C784.414 321.609 784.637 322.855 785.082 324.074C785.535 325.293 786.168 326.375 786.98 327.32C787.793 328.266 788.727 328.977 789.781 329.453L788.422 331.234C787.242 330.648 786.211 329.793 785.328 328.668C784.453 327.543 783.781 326.25 783.312 324.789C782.844 326.328 782.16 327.699 781.262 328.902C780.363 330.098 779.32 331.008 778.133 331.633L776.727 329.828C777.789 329.32 778.73 328.57 779.551 327.578C780.379 326.578 781.02 325.445 781.473 324.18C781.934 322.906 782.164 321.625 782.164 320.336V316.75H784.414V320.336ZM794.352 336.039H792.148V323.781H787.461V321.977H792.148V314.992H794.352V336.039ZM819.969 321.25H822.969V323.078H819.969V329.148H817.742V315.016H819.969V321.25ZM803.305 326.805C805.648 326.805 807.477 326.785 808.789 326.746V325.34C807.578 325.207 806.625 324.871 805.93 324.332C805.234 323.793 804.891 323.102 804.898 322.258C804.891 321.625 805.09 321.074 805.496 320.605C805.91 320.137 806.496 319.777 807.254 319.527C808.012 319.277 808.891 319.156 809.891 319.164C810.883 319.156 811.754 319.277 812.504 319.527C813.262 319.777 813.848 320.137 814.262 320.605C814.676 321.074 814.883 321.625 814.883 322.258C814.883 323.094 814.535 323.785 813.84 324.332C813.152 324.871 812.211 325.207 811.016 325.34V326.664C813.109 326.562 814.953 326.398 816.547 326.172L816.734 327.766C814.742 328.117 812.691 328.344 810.582 328.445C808.48 328.539 806.133 328.586 803.539 328.586L803.305 326.805ZM819.969 335.992H817.742V331.867H805.93V330.133H819.969V335.992ZM815.961 318.461H803.844V316.797H808.789V314.828H811.016V316.797H815.961V318.461ZM809.891 320.688C808.984 320.672 808.277 320.805 807.77 321.086C807.262 321.367 807.008 321.758 807.008 322.258C807.008 322.75 807.262 323.145 807.77 323.441C808.285 323.73 808.992 323.875 809.891 323.875C810.773 323.875 811.469 323.73 811.977 323.441C812.492 323.145 812.75 322.75 812.75 322.258C812.75 321.758 812.496 321.367 811.988 321.086C811.48 320.805 810.781 320.672 809.891 320.688ZM841.602 330.273H839.375V315.016H841.602V330.273ZM842.234 335.547H827.867V328.727H830.117V333.742H842.234V335.547ZM830.211 316.422C831.258 316.422 832.203 316.645 833.047 317.09C833.898 317.535 834.566 318.152 835.051 318.941C835.543 319.73 835.789 320.625 835.789 321.625C835.789 322.641 835.543 323.547 835.051 324.344C834.566 325.133 833.898 325.75 833.047 326.195C832.203 326.633 831.258 326.852 830.211 326.852C829.164 326.852 828.215 326.633 827.363 326.195C826.512 325.75 825.84 325.129 825.348 324.332C824.855 323.535 824.609 322.633 824.609 321.625C824.609 320.625 824.855 319.73 825.348 318.941C825.84 318.152 826.512 317.535 827.363 317.09C828.215 316.645 829.164 316.422 830.211 316.422ZM830.211 318.367C829.562 318.367 828.977 318.508 828.453 318.789C827.938 319.062 827.531 319.445 827.234 319.938C826.938 320.43 826.789 320.992 826.789 321.625C826.789 322.273 826.934 322.848 827.223 323.348C827.52 323.84 827.926 324.223 828.441 324.496C828.965 324.77 829.555 324.906 830.211 324.906C830.852 324.906 831.43 324.77 831.945 324.496C832.461 324.223 832.867 323.836 833.164 323.336C833.461 322.836 833.609 322.266 833.609 321.625C833.609 321 833.461 320.441 833.164 319.949C832.867 319.449 832.457 319.062 831.934 318.789C831.418 318.508 830.844 318.367 830.211 318.367ZM855.312 320.266H844.883V318.461H849.008V315.602H851.211V318.461H855.312V320.266ZM850.109 321.531C850.992 321.531 851.777 321.738 852.465 322.152C853.152 322.559 853.691 323.129 854.082 323.863C854.473 324.59 854.672 325.422 854.68 326.359C854.672 327.305 854.473 328.148 854.082 328.891C853.691 329.625 853.152 330.199 852.465 330.613C851.777 331.027 850.992 331.234 850.109 331.234C849.242 331.234 848.461 331.027 847.766 330.613C847.07 330.199 846.527 329.621 846.137 328.879C845.746 328.137 845.555 327.297 845.562 326.359C845.555 325.43 845.746 324.598 846.137 323.863C846.527 323.129 847.07 322.559 847.766 322.152C848.461 321.738 849.242 321.531 850.109 321.531ZM850.109 323.383C849.609 323.383 849.164 323.512 848.773 323.77C848.383 324.02 848.078 324.371 847.859 324.824C847.641 325.277 847.531 325.789 847.531 326.359C847.531 326.945 847.641 327.465 847.859 327.918C848.078 328.363 848.383 328.711 848.773 328.961C849.164 329.211 849.609 329.336 850.109 329.336C850.609 329.336 851.055 329.211 851.445 328.961C851.844 328.711 852.152 328.363 852.371 327.918C852.598 327.465 852.711 326.945 852.711 326.359C852.711 325.789 852.598 325.277 852.371 324.824C852.152 324.371 851.844 324.02 851.445 323.77C851.047 323.512 850.602 323.383 850.109 323.383ZM862.906 335.992H860.797V325.562H858.383V335.008H856.273V315.461H858.383V323.734H860.797V314.992H862.906V335.992ZM890.75 333.391H871.531V331.539H879.992V327.227H873.734V316.422H875.961V320.031H886.273V316.422H888.477V327.227H882.195V331.539H890.75V333.391ZM886.273 325.422V321.836H875.961V325.422H886.273ZM898.672 320.734C898.672 321.875 898.832 323.004 899.152 324.121C899.473 325.23 899.949 326.246 900.582 327.168C901.215 328.09 901.984 328.828 902.891 329.383L901.648 331.094C900.695 330.523 899.879 329.746 899.199 328.762C898.52 327.77 897.996 326.645 897.629 325.387C897.23 326.754 896.668 327.977 895.941 329.055C895.223 330.125 894.367 330.961 893.375 331.562L891.992 329.898C892.953 329.32 893.773 328.555 894.453 327.602C895.133 326.641 895.645 325.578 895.988 324.414C896.34 323.242 896.516 322.047 896.516 320.828V316.914H898.672V320.734ZM910.344 335.992H908.211V314.992H910.344V335.992ZM905.984 334.961H903.875V324.227H900.617V322.375H903.875V315.391H905.984V334.961ZM932.234 333.367H913.016V331.516H917.609V326.031C916.734 325.547 916.055 324.934 915.57 324.191C915.086 323.449 914.844 322.617 914.844 321.695C914.844 320.609 915.172 319.652 915.828 318.824C916.492 317.996 917.41 317.355 918.582 316.902C919.754 316.441 921.086 316.211 922.578 316.211C924.078 316.211 925.414 316.441 926.586 316.902C927.766 317.355 928.684 317.996 929.34 318.824C930.004 319.652 930.336 320.609 930.336 321.695C930.336 322.609 930.102 323.434 929.633 324.168C929.164 324.895 928.5 325.5 927.641 325.984V331.516H932.234V333.367ZM922.578 317.992C921.484 317.992 920.516 318.145 919.672 318.449C918.828 318.746 918.172 319.176 917.703 319.738C917.234 320.293 917 320.945 917 321.695C917 322.438 917.234 323.09 917.703 323.652C918.172 324.215 918.828 324.652 919.672 324.965C920.516 325.27 921.484 325.422 922.578 325.422C923.664 325.422 924.629 325.27 925.473 324.965C926.324 324.652 926.988 324.215 927.465 323.652C927.941 323.09 928.18 322.438 928.18 321.695C928.18 320.953 927.941 320.301 927.465 319.738C926.996 319.176 926.336 318.746 925.484 318.449C924.641 318.145 923.672 317.992 922.578 317.992ZM925.391 331.516V326.84C924.539 327.051 923.602 327.156 922.578 327.156C921.594 327.156 920.672 327.055 919.812 326.852V331.516H925.391Z" fill="#374151"/>
<defs>
<linearGradient id="paint0_linear_37841_12729" x1="380.943" y1="122.275" x2="380.943" y2="167.177" gradientUnits="userSpaceOnUse">
<stop stop-color="#FF37BB"/>
<stop offset="1" stop-color="#FF68CC"/>
</linearGradient>
<linearGradient id="paint1_linear_37841_12729" x1="342.499" y1="88.6936" x2="351.423" y2="110.969" gradientUnits="userSpaceOnUse">
<stop stop-color="#FF37BB"/>
<stop offset="1" stop-color="#FF68CC"/>
</linearGradient>
<linearGradient id="paint2_linear_37841_12729" x1="395.73" y1="78.7644" x2="385.053" y2="100.226" gradientUnits="userSpaceOnUse">
<stop stop-color="#FF37BB"/>
<stop offset="1" stop-color="#FF68CC"/>
</linearGradient>
<linearGradient id="paint3_linear_37841_12729" x1="380.943" y1="122.275" x2="380.943" y2="167.177" gradientUnits="userSpaceOnUse">
<stop stop-color="#FF37BB"/>
<stop offset="1" stop-color="#FF68CC"/>
</linearGradient>
<linearGradient id="paint4_linear_37841_12729" x1="342.499" y1="88.6937" x2="351.423" y2="110.969" gradientUnits="userSpaceOnUse">
<stop stop-color="#FF37BB"/>
<stop offset="1" stop-color="#FF68CC"/>
</linearGradient>
<linearGradient id="paint5_linear_37841_12729" x1="395.73" y1="78.7644" x2="385.053" y2="100.226" gradientUnits="userSpaceOnUse">
<stop stop-color="#FF37BB"/>
<stop offset="1" stop-color="#FF68CC"/>
</linearGradient>
<clipPath id="clip0_37841_12729">
<rect width="579" height="444" fill="white" transform="translate(23.5)"/>
</clipPath>
</defs>
</svg>
