<svg width="988" height="444" viewBox="0 0 988 444" fill="none" xmlns="http://www.w3.org/2000/svg">
<rect width="988" height="444" rx="12" fill="#FCFCFC"/>
<path d="M278.98 112.912C278.928 112.408 278.708 112.016 278.321 111.734C277.935 111.453 277.422 111.312 276.783 111.312C276.344 111.312 275.966 111.377 275.649 111.506C275.339 111.629 275.102 111.802 274.938 112.024C274.773 112.247 274.691 112.502 274.691 112.789C274.691 113.199 274.876 113.527 275.245 113.773C275.614 114.02 276.109 114.213 276.73 114.354L277.873 114.635C279.051 114.898 279.979 115.335 280.659 115.944C281.345 116.548 281.688 117.354 281.688 118.361C281.688 119.141 281.491 119.817 281.099 120.392C280.706 120.96 280.141 121.399 279.402 121.71C278.664 122.021 277.785 122.176 276.766 122.176C275.734 122.176 274.838 122.018 274.076 121.701C273.32 121.385 272.731 120.919 272.31 120.304C271.894 119.683 271.674 118.924 271.65 118.027H274.217C274.258 118.654 274.504 119.135 274.955 119.469C275.412 119.797 276.004 119.961 276.73 119.961C277.188 119.961 277.589 119.894 277.935 119.759C278.28 119.624 278.547 119.437 278.734 119.196C278.922 118.956 279.016 118.678 279.016 118.361C279.016 117.951 278.837 117.626 278.479 117.386C278.128 117.146 277.58 116.932 276.836 116.744L275.447 116.41C273.139 115.842 271.984 114.688 271.984 112.947C271.984 112.186 272.189 111.515 272.6 110.935C273.016 110.349 273.59 109.897 274.322 109.581C275.055 109.259 275.881 109.098 276.801 109.098C277.727 109.098 278.544 109.259 279.253 109.581C279.962 109.903 280.513 110.354 280.905 110.935C281.298 111.509 281.5 112.168 281.512 112.912H278.98ZM287.682 122.193C286.715 122.193 285.877 121.994 285.168 121.596C284.465 121.197 283.923 120.629 283.542 119.891C283.161 119.146 282.971 118.273 282.971 117.271C282.971 116.293 283.158 115.432 283.533 114.688C283.914 113.938 284.453 113.357 285.15 112.947C285.848 112.537 286.656 112.332 287.576 112.332C288.432 112.332 289.196 112.514 289.87 112.877C290.55 113.234 291.083 113.776 291.47 114.503C291.862 115.229 292.059 116.117 292.059 117.166V117.904H285.537C285.537 118.379 285.625 118.792 285.801 119.144C285.982 119.495 286.237 119.768 286.565 119.961C286.899 120.148 287.289 120.242 287.734 120.242C288.162 120.242 288.531 120.157 288.842 119.987C289.152 119.812 289.375 119.574 289.51 119.275H291.988C291.865 119.861 291.613 120.374 291.232 120.813C290.852 121.253 290.356 121.593 289.747 121.833C289.144 122.073 288.455 122.193 287.682 122.193ZM289.598 116.27C289.598 115.889 289.513 115.549 289.343 115.25C289.179 114.945 288.947 114.708 288.648 114.538C288.35 114.368 288.01 114.283 287.629 114.283C287.242 114.283 286.891 114.371 286.574 114.547C286.264 114.723 286.015 114.963 285.827 115.268C285.646 115.572 285.549 115.906 285.537 116.27H289.598ZM293.236 119.328C293.236 118.344 293.567 117.623 294.229 117.166C294.892 116.709 295.744 116.451 296.787 116.393C297.432 116.352 298.223 116.311 299.16 116.27V115.496C299.148 115.098 299.011 114.787 298.747 114.564C298.483 114.342 298.111 114.23 297.631 114.23C297.197 114.23 296.843 114.324 296.567 114.512C296.292 114.699 296.119 114.957 296.049 115.285H293.57C293.623 114.723 293.816 114.219 294.15 113.773C294.49 113.328 294.962 112.977 295.565 112.719C296.169 112.461 296.881 112.332 297.701 112.332C298.428 112.332 299.096 112.446 299.705 112.675C300.32 112.903 300.812 113.261 301.182 113.747C301.557 114.228 301.744 114.834 301.744 115.566V122H299.283V120.682H299.213C298.961 121.145 298.601 121.511 298.132 121.78C297.669 122.044 297.098 122.176 296.418 122.176C295.797 122.176 295.246 122.07 294.766 121.859C294.291 121.643 293.916 121.32 293.641 120.893C293.371 120.465 293.236 119.943 293.236 119.328ZM295.732 119.258C295.732 119.615 295.861 119.894 296.119 120.093C296.383 120.286 296.729 120.383 297.156 120.383C297.543 120.383 297.889 120.304 298.193 120.146C298.504 119.987 298.744 119.771 298.914 119.495C299.084 119.22 299.166 118.918 299.16 118.59V117.896C298.885 117.901 298.545 117.916 298.141 117.939C297.736 117.963 297.426 117.986 297.209 118.01C296.752 118.057 296.392 118.186 296.128 118.396C295.864 118.607 295.732 118.895 295.732 119.258ZM303.73 112.455H306.244V114.107H306.35C306.52 113.527 306.81 113.085 307.22 112.78C307.63 112.47 308.107 112.314 308.652 112.314C308.951 112.314 309.227 112.344 309.479 112.402V114.723C309.35 114.688 309.177 114.655 308.96 114.626C308.743 114.597 308.547 114.582 308.371 114.582C307.984 114.582 307.636 114.667 307.325 114.837C307.015 115.007 306.771 115.244 306.596 115.549C306.42 115.848 306.332 116.188 306.332 116.568V122H303.73V112.455ZM314.734 122.193C313.779 122.193 312.947 121.985 312.238 121.569C311.535 121.153 310.996 120.573 310.621 119.829C310.246 119.085 310.059 118.227 310.059 117.254C310.059 116.281 310.246 115.426 310.621 114.688C311.002 113.943 311.544 113.366 312.247 112.956C312.956 112.54 313.785 112.332 314.734 112.332C315.549 112.332 316.27 112.481 316.896 112.78C317.523 113.079 318.016 113.504 318.373 114.055C318.736 114.6 318.936 115.232 318.971 115.953H316.527C316.445 115.467 316.252 115.08 315.947 114.793C315.643 114.5 315.25 114.354 314.77 114.354C314.354 114.354 313.987 114.468 313.671 114.696C313.36 114.919 313.12 115.247 312.95 115.681C312.78 116.114 312.695 116.627 312.695 117.219C312.695 117.828 312.78 118.35 312.95 118.783C313.12 119.217 313.36 119.548 313.671 119.776C313.981 120.005 314.348 120.119 314.77 120.119C315.232 120.119 315.622 119.981 315.938 119.706C316.255 119.431 316.451 119.041 316.527 118.537H318.971C318.93 119.258 318.733 119.894 318.382 120.444C318.03 120.995 317.541 121.426 316.914 121.736C316.293 122.041 315.566 122.193 314.734 122.193ZM323.189 122H320.588V109.273H323.119V114.125H323.225C323.447 113.557 323.802 113.117 324.288 112.807C324.774 112.49 325.369 112.332 326.072 112.332C326.734 112.332 327.314 112.476 327.812 112.763C328.311 113.05 328.694 113.463 328.964 114.002C329.239 114.541 329.377 115.18 329.377 115.918V122H326.775V116.375C326.775 115.783 326.623 115.323 326.318 114.995C326.02 114.661 325.598 114.494 325.053 114.494C324.689 114.494 324.367 114.573 324.086 114.731C323.805 114.884 323.585 115.109 323.427 115.408C323.269 115.707 323.189 116.064 323.189 116.48V122Z" fill="#3692FF"/>
<path d="M139.247 156.32C139.247 158.586 139.195 160.591 139.091 162.336C138.986 164.068 138.733 166.034 138.329 168.234H143.036V172.258H129.169V186.633H124.169V172.258H110.614V168.234H133.29C133.707 166.177 133.973 164.296 134.091 162.59C134.221 160.871 134.286 159.042 134.286 157.102H114.325V153.117H139.247V156.32ZM176.805 186.594H172.039V168.664H168.836V184.953H164.109V151.555H168.836V164.602H172.039V151.047H176.805V186.594ZM161.141 177.648H147V154.719H161.141V177.648ZM151.648 173.742H156.492V158.664H151.648V173.742ZM213.855 170.695H181.316V166.984H213.855V170.695ZM209.948 180.852H190.027V182.883H211.003V186.281H185.066V177.688H205.027V175.891H185.027V172.453H209.948V180.852ZM209.909 160.031H190.339V161.945H210.534V165.305H185.378V156.867H204.909V155.07H185.3V151.672H209.909V160.031ZM256.861 177.922H251.861V175.109H245.064V171.711H251.861V151.086H256.861V177.922ZM257.642 185.969H231.158V175.344H236.119V170.617C233.697 170.721 230.728 170.773 227.212 170.773L226.627 166.828C231.21 166.802 235.331 166.724 238.99 166.594C242.649 166.464 246.132 166.19 249.439 165.773L249.712 169.328C247.004 169.784 244.14 170.122 241.119 170.344V177.102H236.119V181.984H257.642V185.969ZM238.189 152.297C239.895 152.284 241.418 152.544 242.759 153.078C244.101 153.612 245.149 154.367 245.904 155.344C246.672 156.307 247.056 157.414 247.056 158.664C247.056 159.901 246.679 160.995 245.923 161.945C245.168 162.896 244.114 163.632 242.759 164.152C241.418 164.66 239.895 164.914 238.189 164.914C236.444 164.914 234.895 164.66 233.541 164.152C232.186 163.632 231.132 162.902 230.377 161.965C229.621 161.014 229.244 159.914 229.244 158.664C229.244 157.414 229.615 156.307 230.357 155.344C231.112 154.367 232.167 153.612 233.521 153.078C234.888 152.544 236.444 152.284 238.189 152.297ZM238.189 155.93C236.9 155.93 235.871 156.171 235.103 156.652C234.335 157.134 233.957 157.805 233.97 158.664C233.957 159.51 234.328 160.168 235.084 160.637C235.852 161.092 236.887 161.32 238.189 161.32C239.413 161.32 240.403 161.086 241.158 160.617C241.926 160.148 242.317 159.497 242.33 158.664C242.317 157.805 241.926 157.134 241.158 156.652C240.403 156.171 239.413 155.93 238.189 155.93ZM290.161 164.953H295.395V169.055H290.161V186.594H285.239V151.047H290.161V164.953ZM282.817 160.344H261.919V156.359H269.966V151.594H274.966V156.359H282.817V160.344ZM272.466 162.336C274.184 162.336 275.727 162.701 277.095 163.43C278.475 164.146 279.555 165.148 280.337 166.438C281.131 167.727 281.528 169.185 281.528 170.812C281.528 172.44 281.131 173.898 280.337 175.188C279.555 176.477 278.475 177.486 277.095 178.215C275.727 178.931 274.184 179.289 272.466 179.289C270.734 179.289 269.178 178.931 267.798 178.215C266.417 177.486 265.33 176.477 264.536 175.188C263.755 173.898 263.364 172.44 263.364 170.812C263.364 169.185 263.755 167.727 264.536 166.438C265.33 165.148 266.417 164.146 267.798 163.43C269.178 162.701 270.734 162.336 272.466 162.336ZM272.466 166.359C271.632 166.372 270.884 166.561 270.22 166.926C269.568 167.29 269.054 167.805 268.677 168.469C268.312 169.133 268.13 169.914 268.13 170.812C268.13 171.724 268.312 172.512 268.677 173.176C269.054 173.84 269.568 174.348 270.22 174.699C270.884 175.038 271.632 175.201 272.466 175.188C273.299 175.201 274.041 175.038 274.692 174.699C275.343 174.348 275.851 173.84 276.216 173.176C276.58 172.512 276.762 171.724 276.762 170.812C276.762 169.914 276.58 169.133 276.216 168.469C275.851 167.805 275.343 167.29 274.692 166.926C274.041 166.561 273.299 166.372 272.466 166.359ZM326.352 164.641H301.508V152.297H306.469V160.734H326.352V164.641ZM329.984 172.375H297.445V168.469H329.984V172.375ZM326.586 185.812H301.195V175.266H306.195V181.828H326.586V185.812ZM52.8422 212.633C52.8422 214.104 53.1352 215.51 53.7211 216.852C54.307 218.18 55.2055 219.371 56.4164 220.426C57.6404 221.467 59.1573 222.268 60.9672 222.828L58.3109 226.695C56.462 226.083 54.8734 225.198 53.5453 224.039C52.2172 222.88 51.1625 221.507 50.3813 219.918C49.587 221.754 48.4867 223.342 47.0805 224.684C45.6872 226.012 44.001 227.008 42.0219 227.672L39.3266 223.766C41.2406 223.128 42.8292 222.216 44.0922 221.031C45.3552 219.846 46.2927 218.499 46.9047 216.988C47.5167 215.465 47.8292 213.857 47.8422 212.164V208.922H52.8422V212.633ZM68.0766 215.367H72.8813V219.508H68.0766V228.141H63.0766V207.047H68.0766V215.367ZM56.4359 228.844C58.8839 228.844 61.0063 229.117 62.8031 229.664C64.6 230.211 65.9867 230.999 66.9633 232.027C67.9398 233.056 68.4281 234.286 68.4281 235.719C68.4281 237.164 67.9398 238.401 66.9633 239.43C65.9997 240.458 64.613 241.24 62.8031 241.773C61.0063 242.32 58.8839 242.594 56.4359 242.594C53.9359 242.594 51.768 242.32 49.932 241.773C48.1091 241.24 46.7029 240.458 45.7133 239.43C44.7367 238.401 44.2484 237.164 44.2484 235.719C44.2484 234.286 44.7367 233.056 45.7133 232.027C46.7029 230.999 48.1156 230.211 49.9516 229.664C51.7875 229.117 53.949 228.844 56.4359 228.844ZM56.4359 232.75C54.0792 232.75 52.2888 233.004 51.0648 233.512C49.8409 234.007 49.2354 234.742 49.2484 235.719C49.2094 237.698 51.6052 238.688 56.4359 238.688C61.1495 238.688 63.5063 237.698 63.5063 235.719C63.5063 234.742 62.9008 234.007 61.6898 233.512C60.4919 233.004 58.7406 232.75 56.4359 232.75ZM107.666 227.633H93.9156V230.68H103.798V242.203H78.9938V230.68H88.9547V227.633H75.2438V223.688H107.666V227.633ZM104.775 212.008H100.127V217.438H104.541V221.422H78.3297V217.438H82.7047V212.008H78.0953V208.023H104.775V212.008ZM83.9156 238.219H98.9156V234.547H83.9156V238.219ZM95.1266 217.438V212.008H87.7047V217.438H95.1266ZM126.825 207.555C129.546 207.555 131.871 207.789 133.798 208.258C135.725 208.727 137.196 209.417 138.212 210.328C139.227 211.227 139.742 212.32 139.755 213.609C139.742 214.911 139.227 216.018 138.212 216.93C137.196 217.841 135.725 218.531 133.798 219C131.871 219.469 129.546 219.703 126.825 219.703C124.091 219.703 121.753 219.469 119.813 219C117.873 218.531 116.395 217.841 115.38 216.93C114.364 216.018 113.856 214.911 113.856 213.609C113.856 212.32 114.364 211.227 115.38 210.328C116.395 209.417 117.873 208.727 119.813 208.258C121.753 207.789 124.091 207.555 126.825 207.555ZM126.825 211.188C124.234 211.188 122.287 211.396 120.985 211.812C119.696 212.216 119.065 212.815 119.091 213.609C119.078 214.469 119.696 215.087 120.946 215.465C122.196 215.842 124.156 216.031 126.825 216.031C129.507 216.031 131.473 215.842 132.723 215.465C133.973 215.087 134.598 214.469 134.598 213.609C134.598 212.815 133.954 212.216 132.665 211.812C131.376 211.396 129.429 211.188 126.825 211.188ZM143.036 225.328H110.614V221.383H143.036V225.328ZM139.091 236.461H119.286V238.609H140.028V242.359H114.403V232.984H134.169V231.031H114.364V227.398H139.091V236.461ZM174.441 209.117C174.441 212.19 173.809 214.957 172.546 217.418C171.283 219.866 169.434 221.962 166.999 223.707C164.577 225.439 161.628 226.786 158.152 227.75L156.198 223.883C159.974 222.854 162.963 221.409 165.163 219.547C167.364 217.685 168.679 215.536 169.109 213.102H158.113V209.117H174.441ZM185.964 226.969H181.003V219.586H174.675V215.523H181.003V207.086H185.964V226.969ZM185.964 242.164H162.409V228.375H185.964V242.164ZM167.292 238.258H181.042V232.281H167.292V238.258ZM202.741 213.219C202.741 215.328 203.288 217.249 204.381 218.98C205.488 220.699 207.168 222.008 209.42 222.906L206.725 226.734C205.267 226.148 204.004 225.335 202.936 224.293C201.881 223.251 201.028 222.04 200.377 220.66C199.7 222.262 198.789 223.668 197.643 224.879C196.497 226.077 195.123 227.008 193.522 227.672L190.866 223.805C192.467 223.115 193.789 222.203 194.83 221.07C195.885 219.938 196.66 218.701 197.155 217.359C197.649 216.005 197.897 214.625 197.897 213.219V209.117H202.741V213.219ZM221.92 228.609H217.194V219.781H214.225V228.414H209.577V207.633H214.225V215.719H217.194V207.086H221.92V228.609ZM221.92 242.594H216.959V234.156H197.35V230.172H221.92V242.594ZM254.791 220.953H260.025V225.055H254.791V242.594H249.869V207.047H254.791V220.953ZM247.447 216.344H226.548V212.359H234.595V207.594H239.595V212.359H247.447V216.344ZM237.095 218.336C238.814 218.336 240.357 218.701 241.724 219.43C243.104 220.146 244.185 221.148 244.966 222.438C245.761 223.727 246.158 225.185 246.158 226.812C246.158 228.44 245.761 229.898 244.966 231.188C244.185 232.477 243.104 233.486 241.724 234.215C240.357 234.931 238.814 235.289 237.095 235.289C235.364 235.289 233.808 234.931 232.427 234.215C231.047 233.486 229.96 232.477 229.166 231.188C228.384 229.898 227.994 228.44 227.994 226.812C227.994 225.185 228.384 223.727 229.166 222.438C229.96 221.148 231.047 220.146 232.427 219.43C233.808 218.701 235.364 218.336 237.095 218.336ZM237.095 222.359C236.262 222.372 235.513 222.561 234.849 222.926C234.198 223.29 233.684 223.805 233.306 224.469C232.942 225.133 232.759 225.914 232.759 226.812C232.759 227.724 232.942 228.512 233.306 229.176C233.684 229.84 234.198 230.348 234.849 230.699C235.513 231.038 236.262 231.201 237.095 231.188C237.929 231.201 238.671 231.038 239.322 230.699C239.973 230.348 240.481 229.84 240.845 229.176C241.21 228.512 241.392 227.724 241.392 226.812C241.392 225.914 241.21 225.133 240.845 224.469C240.481 223.805 239.973 223.29 239.322 222.926C238.671 222.561 237.929 222.372 237.095 222.359ZM273.52 215.992C273.52 219.169 274.028 222.066 275.044 224.684C276.059 227.301 277.7 229.339 279.966 230.797L277.27 234.664C274.406 232.932 272.355 230.087 271.118 226.129C270.454 228.212 269.575 230.055 268.481 231.656C267.388 233.245 266.059 234.508 264.497 235.445L261.45 231.773C263.937 230.224 265.76 228.069 266.919 225.309C268.091 222.535 268.677 219.508 268.677 216.227V210.094H273.52V215.992ZM292.934 242.594H288.169V207.047H292.934V242.594ZM285.473 240.953H280.825V223.102H276.216V219.039H280.825V207.555H285.473V240.953ZM330.023 238.453H297.484V234.352H304.75V225.66C303.344 224.814 302.257 223.772 301.488 222.535C300.72 221.285 300.336 219.885 300.336 218.336C300.336 216.448 300.909 214.781 302.055 213.336C303.201 211.891 304.783 210.771 306.801 209.977C308.832 209.169 311.13 208.766 313.695 208.766C316.247 208.766 318.533 209.169 320.551 209.977C322.582 210.771 324.177 211.891 325.336 213.336C326.495 214.781 327.081 216.448 327.094 218.336C327.081 219.846 326.697 221.22 325.941 222.457C325.199 223.681 324.151 224.716 322.797 225.562V234.352H330.023V238.453ZM313.695 212.711C312.003 212.711 310.518 212.932 309.242 213.375C307.979 213.818 306.996 214.462 306.293 215.309C305.603 216.142 305.258 217.151 305.258 218.336C305.258 219.482 305.603 220.478 306.293 221.324C306.996 222.171 307.986 222.822 309.262 223.277C310.538 223.733 312.016 223.961 313.695 223.961C315.362 223.961 316.833 223.733 318.109 223.277C319.385 222.822 320.375 222.171 321.078 221.324C321.794 220.478 322.159 219.482 322.172 218.336C322.159 217.164 321.801 216.155 321.098 215.309C320.395 214.462 319.405 213.818 318.129 213.375C316.853 212.932 315.375 212.711 313.695 212.711ZM317.758 234.352V227.457C316.417 227.704 315.062 227.828 313.695 227.828C312.237 227.828 310.896 227.704 309.672 227.457V234.352H317.758Z" fill="#374151"/>
<path d="M61.2578 286.156C61.2578 287.508 61.2227 288.707 61.1523 289.754C61.0898 290.793 60.9297 291.977 60.6719 293.305H63.6953V295.133H55.1875V304.016H52.9375V295.133H44.5469V293.305H58.4219C58.7031 291.984 58.8789 290.801 58.9492 289.754C59.0195 288.699 59.0547 287.5 59.0547 286.156V286.133H46.8906V284.305H61.2578V286.156ZM83.3594 303.992H81.2266V293.047H78.625V302.961H76.5156V283.391H78.625V291.219H81.2266V282.992H83.3594V303.992ZM74.1484 298.461H65.9922V285.359H74.1484V298.461ZM68.1016 296.68H72.0625V287.117H68.1016V296.68ZM102.391 291.5H105.766V293.352H102.391V303.992H100.188V282.992H102.391V291.5ZM98.3594 288.102H85.9141V286.273H91.0938V283.273H93.3203V286.273H98.3594V288.102ZM92.2188 289.648C93.2109 289.648 94.1016 289.855 94.8906 290.27C95.6797 290.684 96.3008 291.262 96.7539 292.004C97.207 292.746 97.4375 293.586 97.4453 294.523C97.4375 295.469 97.207 296.312 96.7539 297.055C96.3008 297.797 95.6797 298.375 94.8906 298.789C94.1016 299.203 93.2109 299.414 92.2188 299.422C91.2188 299.414 90.3203 299.203 89.5234 298.789C88.7344 298.375 88.1133 297.797 87.6602 297.055C87.2148 296.312 86.9922 295.469 86.9922 294.523C86.9922 293.586 87.2148 292.746 87.6602 292.004C88.1133 291.262 88.7344 290.684 89.5234 290.27C90.3203 289.855 91.2188 289.648 92.2188 289.648ZM92.2188 291.477C91.6328 291.477 91.1016 291.605 90.625 291.863C90.1484 292.121 89.7773 292.48 89.5117 292.941C89.2461 293.402 89.1172 293.93 89.125 294.523C89.1172 295.125 89.2461 295.656 89.5117 296.117C89.7773 296.578 90.1445 296.934 90.6133 297.184C91.0898 297.434 91.625 297.555 92.2188 297.547C92.8047 297.555 93.332 297.434 93.8008 297.184C94.2773 296.934 94.6484 296.578 94.9141 296.117C95.1797 295.656 95.3125 295.125 95.3125 294.523C95.3125 293.93 95.1797 293.402 94.9141 292.941C94.6484 292.48 94.2773 292.121 93.8008 291.863C93.332 291.605 92.8047 291.477 92.2188 291.477ZM123.766 287.07C123.766 288.25 123.75 289.277 123.719 290.152C123.695 291.02 123.625 292.023 123.508 293.164C123.398 294.305 123.219 295.539 122.969 296.867L120.719 296.633C120.969 295.375 121.152 294.191 121.27 293.082C121.395 291.965 121.469 290.973 121.492 290.105C121.523 289.238 121.539 288.227 121.539 287.07V286.812H108.789V285.008H123.766V287.07ZM125.922 301.156H106.773V299.305H114.062V291.898H116.266V299.305H125.922V301.156ZM150.789 294.664H148.562V283.016H150.789V294.664ZM141.016 285.805C141.008 286.727 141.215 287.613 141.637 288.465C142.066 289.309 142.676 290.051 143.465 290.691C144.262 291.332 145.188 291.812 146.242 292.133L145.164 293.891C143.938 293.492 142.871 292.898 141.965 292.109C141.066 291.32 140.375 290.387 139.891 289.309C139.406 290.473 138.703 291.488 137.781 292.355C136.867 293.215 135.789 293.852 134.547 294.266L133.445 292.508C134.523 292.156 135.461 291.641 136.258 290.961C137.055 290.273 137.668 289.484 138.098 288.594C138.527 287.703 138.742 286.773 138.742 285.805V283.766H141.016V285.805ZM150.93 297.594H148.164V301.93H151.141V303.734H136.516V301.93H139.516V297.594H136.703V295.812H150.93V297.594ZM145.961 301.93V297.594H141.719V301.93H145.961ZM173.266 295.742H154.117V293.961H173.266V295.742ZM171.109 303.547H156.531V297.453H158.781V301.742H171.109V303.547ZM163.68 283.695C165.188 283.688 166.504 283.852 167.629 284.188C168.762 284.523 169.637 285.008 170.254 285.641C170.871 286.273 171.18 287.023 171.18 287.891C171.18 288.766 170.871 289.523 170.254 290.164C169.645 290.797 168.773 291.285 167.641 291.629C166.508 291.973 165.188 292.148 163.68 292.156C162.164 292.148 160.84 291.973 159.707 291.629C158.582 291.285 157.711 290.797 157.094 290.164C156.484 289.523 156.18 288.766 156.18 287.891C156.18 287.023 156.484 286.273 157.094 285.641C157.711 285.008 158.582 284.523 159.707 284.188C160.84 283.852 162.164 283.688 163.68 283.695ZM163.68 285.477C162.617 285.477 161.691 285.574 160.902 285.77C160.121 285.965 159.52 286.246 159.098 286.613C158.676 286.973 158.469 287.398 158.477 287.891C158.469 288.398 158.672 288.836 159.086 289.203C159.508 289.57 160.109 289.852 160.891 290.047C161.68 290.234 162.609 290.328 163.68 290.328C164.75 290.328 165.676 290.234 166.457 290.047C167.238 289.852 167.836 289.57 168.25 289.203C168.672 288.836 168.883 288.398 168.883 287.891C168.883 287.398 168.672 286.973 168.25 286.613C167.828 286.246 167.227 285.965 166.445 285.77C165.664 285.574 164.742 285.477 163.68 285.477ZM199.867 293.469H191.383V295.297H197.453V300.219H185.219V302.07H198.039V303.781H183.039V298.602H195.25V297.008H183.016V295.297H189.156V293.469H180.719V291.688H199.867V293.469ZM197.406 290.141H183.18V283.672H197.406V290.141ZM185.359 288.383H195.18V285.43H185.359V288.383ZM220.609 294.828H212.125V297.078H218.266V303.734H203.758V297.078H209.922V294.828H201.461V293.047H220.609V294.828ZM218.805 285.453H215.758V289.461H218.711V291.266H203.312V289.461H206.289V285.453H203.219V283.648H218.805V285.453ZM205.961 301.93H216.109V298.836H205.961V301.93ZM213.531 289.461V285.453H208.492V289.461H213.531ZM241.352 295.742H222.203V293.961H241.352V295.742ZM239.195 303.547H224.617V297.453H226.867V301.742H239.195V303.547ZM231.766 283.695C233.273 283.688 234.59 283.852 235.715 284.188C236.848 284.523 237.723 285.008 238.34 285.641C238.957 286.273 239.266 287.023 239.266 287.891C239.266 288.766 238.957 289.523 238.34 290.164C237.73 290.797 236.859 291.285 235.727 291.629C234.594 291.973 233.273 292.148 231.766 292.156C230.25 292.148 228.926 291.973 227.793 291.629C226.668 291.285 225.797 290.797 225.18 290.164C224.57 289.523 224.266 288.766 224.266 287.891C224.266 287.023 224.57 286.273 225.18 285.641C225.797 285.008 226.668 284.523 227.793 284.188C228.926 283.852 230.25 283.688 231.766 283.695ZM231.766 285.477C230.703 285.477 229.777 285.574 228.988 285.77C228.207 285.965 227.605 286.246 227.184 286.613C226.762 286.973 226.555 287.398 226.562 287.891C226.555 288.398 226.758 288.836 227.172 289.203C227.594 289.57 228.195 289.852 228.977 290.047C229.766 290.234 230.695 290.328 231.766 290.328C232.836 290.328 233.762 290.234 234.543 290.047C235.324 289.852 235.922 289.57 236.336 289.203C236.758 288.836 236.969 288.398 236.969 287.891C236.969 287.398 236.758 286.973 236.336 286.613C235.914 286.246 235.312 285.965 234.531 285.77C233.75 285.574 232.828 285.477 231.766 285.477ZM259.656 284.305C259.656 286.062 259.27 287.656 258.496 289.086C257.723 290.516 256.605 291.742 255.145 292.766C253.691 293.789 251.945 294.586 249.906 295.156L248.992 293.422C250.602 292.969 252 292.383 253.188 291.664C254.375 290.945 255.316 290.117 256.012 289.18C256.715 288.242 257.137 287.227 257.277 286.133H250.094V284.305H259.656ZM266.312 294.898H264.086V290.117H259.75V288.266H264.086V283.016H266.312V294.898ZM266.312 303.711H252.578V295.766H266.312V303.711ZM254.758 301.93H264.109V297.547H254.758V301.93ZM275.969 286.953C275.969 287.75 276.129 288.527 276.449 289.285C276.77 290.043 277.242 290.723 277.867 291.324C278.5 291.926 279.258 292.398 280.141 292.742L278.945 294.453C278.008 294.078 277.195 293.547 276.508 292.859C275.828 292.172 275.293 291.375 274.902 290.469C274.504 291.484 273.945 292.387 273.227 293.176C272.508 293.957 271.656 294.562 270.672 294.992L269.453 293.281C270.367 292.883 271.152 292.34 271.809 291.652C272.465 290.965 272.961 290.211 273.297 289.391C273.641 288.57 273.812 287.758 273.812 286.953V284.258H275.969V286.953ZM287.453 295.695H285.344V290.211H282.883V295.578H280.82V283.367H282.883V288.359H285.344V283.016H287.453V295.695ZM287.453 303.992H285.25V298.602H273.18V296.797H287.453V303.992ZM300.672 288.266H290.242V286.461H294.367V283.602H296.57V286.461H300.672V288.266ZM295.469 289.531C296.352 289.531 297.137 289.738 297.824 290.152C298.512 290.559 299.051 291.129 299.441 291.863C299.832 292.59 300.031 293.422 300.039 294.359C300.031 295.305 299.832 296.148 299.441 296.891C299.051 297.625 298.512 298.199 297.824 298.613C297.137 299.027 296.352 299.234 295.469 299.234C294.602 299.234 293.82 299.027 293.125 298.613C292.43 298.199 291.887 297.621 291.496 296.879C291.105 296.137 290.914 295.297 290.922 294.359C290.914 293.43 291.105 292.598 291.496 291.863C291.887 291.129 292.43 290.559 293.125 290.152C293.82 289.738 294.602 289.531 295.469 289.531ZM295.469 291.383C294.969 291.383 294.523 291.512 294.133 291.77C293.742 292.02 293.438 292.371 293.219 292.824C293 293.277 292.891 293.789 292.891 294.359C292.891 294.945 293 295.465 293.219 295.918C293.438 296.363 293.742 296.711 294.133 296.961C294.523 297.211 294.969 297.336 295.469 297.336C295.969 297.336 296.414 297.211 296.805 296.961C297.203 296.711 297.512 296.363 297.73 295.918C297.957 295.465 298.07 294.945 298.07 294.359C298.07 293.789 297.957 293.277 297.73 292.824C297.512 292.371 297.203 292.02 296.805 291.77C296.406 291.512 295.961 291.383 295.469 291.383ZM308.266 303.992H306.156V293.562H303.742V303.008H301.633V283.461H303.742V291.734H306.156V282.992H308.266V303.992ZM318.602 288.336C318.602 289.609 318.824 290.855 319.27 292.074C319.723 293.293 320.355 294.375 321.168 295.32C321.98 296.266 322.914 296.977 323.969 297.453L322.609 299.234C321.43 298.648 320.398 297.793 319.516 296.668C318.641 295.543 317.969 294.25 317.5 292.789C317.031 294.328 316.348 295.699 315.449 296.902C314.551 298.098 313.508 299.008 312.32 299.633L310.914 297.828C311.977 297.32 312.918 296.57 313.738 295.578C314.566 294.578 315.207 293.445 315.66 292.18C316.121 290.906 316.352 289.625 316.352 288.336V284.75H318.602V288.336ZM328.539 304.039H326.336V291.781H321.648V289.977H326.336V282.992H328.539V304.039ZM186.227 330.156H195.859V328.023H198.062V335.734H184V328.023H186.227V330.156ZM195.859 333.93V331.867H186.227V333.93H195.859ZM198.062 327.062H195.836V315.016H198.062V327.062ZM182.781 324.062C185.016 324.062 187.094 324.023 189.016 323.945C190.945 323.867 192.773 323.711 194.5 323.477L194.641 325.07C192.93 325.359 191.094 325.566 189.133 325.691V328.609H186.93V325.809C185.516 325.863 183.547 325.891 181.023 325.891L180.742 324.062H182.781ZM188.969 316.492C188.969 317.164 189.172 317.797 189.578 318.391C189.992 318.984 190.578 319.5 191.336 319.938C192.102 320.375 193 320.703 194.031 320.922L193.047 322.586C191.836 322.32 190.785 321.895 189.895 321.309C189.004 320.715 188.328 320 187.867 319.164C187.406 320.07 186.727 320.852 185.828 321.508C184.93 322.156 183.859 322.633 182.617 322.938L181.609 321.203C182.648 320.969 183.551 320.621 184.316 320.16C185.082 319.691 185.668 319.145 186.074 318.52C186.488 317.887 186.695 317.211 186.695 316.492V315.508H188.969V316.492ZM219.508 335.992H217.398V314.992H219.508V335.992ZM215.078 334.961H212.969V325.211H208.867C207.555 327.758 205.484 329.859 202.656 331.516L201.391 329.922C203.578 328.625 205.238 327.102 206.371 325.352C207.512 323.602 208.176 321.625 208.363 319.422H202.375V317.594H210.578C210.562 319.75 210.25 321.695 209.641 323.43H212.969V315.531H215.078V334.961ZM235.422 319.328C235.422 320.125 235.625 320.891 236.031 321.625C236.445 322.359 237.035 323.012 237.801 323.582C238.574 324.145 239.484 324.57 240.531 324.859L239.523 326.57C238.32 326.234 237.273 325.719 236.383 325.023C235.5 324.32 234.82 323.488 234.344 322.527C233.875 323.574 233.188 324.484 232.281 325.258C231.383 326.023 230.32 326.594 229.094 326.969L228.016 325.211C229.07 324.914 229.988 324.469 230.77 323.875C231.559 323.281 232.164 322.594 232.586 321.812C233.008 321.031 233.219 320.203 233.219 319.328V319.094H228.648V317.312H233.219V314.898H235.445V317.312H239.992V319.094H235.422V319.328ZM244.562 320.031H247.609V321.883H244.562V327.109H242.336V314.992H244.562V320.031ZM244.891 329.945H239.148C239.281 330.594 239.648 331.215 240.25 331.809C240.852 332.395 241.629 332.898 242.582 333.32C243.543 333.742 244.602 334.039 245.758 334.211L244.938 335.922C243.344 335.672 241.926 335.199 240.684 334.504C239.441 333.809 238.516 332.965 237.906 331.973C237.305 332.957 236.387 333.793 235.152 334.48C233.926 335.176 232.516 335.648 230.922 335.898L230.102 334.188C231.266 334.023 232.32 333.734 233.266 333.32C234.219 332.906 234.996 332.406 235.598 331.82C236.199 331.234 236.566 330.609 236.699 329.945H230.945V328.164H244.891V329.945ZM254.43 316.562C255.469 316.562 256.395 316.863 257.207 317.465C258.027 318.066 258.664 318.926 259.117 320.043C259.578 321.152 259.812 322.445 259.82 323.922C259.812 325.406 259.578 326.707 259.117 327.824C258.664 328.934 258.027 329.793 257.207 330.402C256.395 331.004 255.469 331.305 254.43 331.305C253.383 331.305 252.453 331.004 251.641 330.402C250.828 329.793 250.191 328.934 249.73 327.824C249.277 326.707 249.055 325.406 249.062 323.922C249.055 322.445 249.277 321.152 249.73 320.043C250.191 318.934 250.828 318.078 251.641 317.477C252.453 316.867 253.383 316.562 254.43 316.562ZM254.43 318.555C253.789 318.555 253.223 318.773 252.73 319.211C252.246 319.648 251.867 320.273 251.594 321.086C251.328 321.891 251.195 322.836 251.195 323.922C251.195 325.016 251.328 325.969 251.594 326.781C251.867 327.594 252.246 328.219 252.73 328.656C253.223 329.094 253.789 329.312 254.43 329.312C255.078 329.312 255.648 329.094 256.141 328.656C256.633 328.219 257.012 327.594 257.277 326.781C257.551 325.969 257.688 325.016 257.688 323.922C257.688 322.836 257.551 321.891 257.277 321.086C257.012 320.273 256.633 319.648 256.141 319.211C255.648 318.773 255.078 318.555 254.43 318.555ZM265.164 323.219H268.539V325.094H265.164V335.992H262.938V314.992H265.164V323.219ZM288.766 333.391H269.547V331.539H278.008V327.227H271.75V316.422H273.977V320.031H284.289V316.422H286.492V327.227H280.211V331.539H288.766V333.391ZM284.289 325.422V321.836H273.977V325.422H284.289ZM296.688 320.734C296.688 321.875 296.848 323.004 297.168 324.121C297.488 325.23 297.965 326.246 298.598 327.168C299.23 328.09 300 328.828 300.906 329.383L299.664 331.094C298.711 330.523 297.895 329.746 297.215 328.762C296.535 327.77 296.012 326.645 295.645 325.387C295.246 326.754 294.684 327.977 293.957 329.055C293.238 330.125 292.383 330.961 291.391 331.562L290.008 329.898C290.969 329.32 291.789 328.555 292.469 327.602C293.148 326.641 293.66 325.578 294.004 324.414C294.355 323.242 294.531 322.047 294.531 320.828V316.914H296.688V320.734ZM308.359 335.992H306.227V314.992H308.359V335.992ZM304 334.961H301.891V324.227H298.633V322.375H301.891V315.391H304V334.961ZM330.25 333.367H311.031V331.516H315.625V326.031C314.75 325.547 314.07 324.934 313.586 324.191C313.102 323.449 312.859 322.617 312.859 321.695C312.859 320.609 313.188 319.652 313.844 318.824C314.508 317.996 315.426 317.355 316.598 316.902C317.77 316.441 319.102 316.211 320.594 316.211C322.094 316.211 323.43 316.441 324.602 316.902C325.781 317.355 326.699 317.996 327.355 318.824C328.02 319.652 328.352 320.609 328.352 321.695C328.352 322.609 328.117 323.434 327.648 324.168C327.18 324.895 326.516 325.5 325.656 325.984V331.516H330.25V333.367ZM320.594 317.992C319.5 317.992 318.531 318.145 317.688 318.449C316.844 318.746 316.188 319.176 315.719 319.738C315.25 320.293 315.016 320.945 315.016 321.695C315.016 322.438 315.25 323.09 315.719 323.652C316.188 324.215 316.844 324.652 317.688 324.965C318.531 325.27 319.5 325.422 320.594 325.422C321.68 325.422 322.645 325.27 323.488 324.965C324.34 324.652 325.004 324.215 325.48 323.652C325.957 323.09 326.195 322.438 326.195 321.695C326.195 320.953 325.957 320.301 325.48 319.738C325.012 319.176 324.352 318.746 323.5 318.449C322.656 318.145 321.688 317.992 320.594 317.992ZM323.406 331.516V326.84C322.555 327.051 321.617 327.156 320.594 327.156C319.609 327.156 318.688 327.055 317.828 326.852V331.516H323.406Z" fill="#374151"/>
<g clip-path="url(#clip0_37841_12794)">
<rect x="395" width="579" height="444" fill="#F3F4F6"/>
<rect x="447" y="161" width="133" height="133" rx="22" fill="#F9FAFB"/>
<rect x="290" y="161" width="133" height="133" rx="22" fill="#F9FAFB"/>
<rect x="798" y="161" width="133" height="133" rx="22" fill="#F9FAFB"/>
<rect x="955" y="161" width="133" height="133" rx="22" fill="#F9FAFB"/>
</g>
<rect x="600.801" y="143.323" width="167.398" height="170.384" rx="22" fill="#E5E7EB"/>
<rect x="600.801" y="143.323" width="167.398" height="170.384" rx="22" fill="url(#paint0_linear_37841_12794)"/>
<path d="M673.996 245.168C673.996 232.786 676.883 229.008 682.45 225.336C687.089 222.293 690.594 219.669 690.594 215.367C690.594 211.484 687.501 208.861 683.687 208.861C679.666 208.861 676.161 211.904 676.058 216.416H657.913C658.119 200.256 669.769 193.436 683.79 193.436C699.254 193.436 710.595 200.466 710.595 214.318C710.595 223.237 705.852 228.589 698.739 232.786C693.378 236.039 690.697 239.082 690.697 245.168V246.847H673.996V245.168ZM682.553 271.612C676.986 271.612 672.45 267.1 672.553 261.433C672.45 255.872 676.986 251.359 682.553 251.359C687.811 251.359 692.553 255.872 692.553 261.433C692.553 267.1 687.811 271.612 682.553 271.612Z" fill="#D1D5DB"/>
<path d="M822.283 350.43C825.11 353.307 829.733 353.348 832.61 350.521C835.486 347.695 835.527 343.072 832.701 340.195L822.283 350.43ZM779.73 307.118L822.283 350.43L832.701 340.195L790.148 296.883L779.73 307.118Z" fill="#3692FF"/>
<path d="M799.584 263.738C799.584 293.119 776.217 316.716 747.663 316.716C719.108 316.716 695.741 293.119 695.741 263.738C695.741 234.357 719.108 210.76 747.663 210.76C776.217 210.76 799.584 234.357 799.584 263.738Z" stroke="black" stroke-width="14.6041"/>
<defs>
<linearGradient id="paint0_linear_37841_12794" x1="627.388" y1="150.84" x2="749.398" y2="323.713" gradientUnits="userSpaceOnUse">
<stop stop-color="#BFD5FF"/>
<stop offset="1" stop-color="#E5E7EB" stop-opacity="0"/>
</linearGradient>
<clipPath id="clip0_37841_12794">
<rect width="579" height="444" fill="white" transform="translate(395)"/>
</clipPath>
</defs>
</svg>
